<?xml version="1.0" standalone="no"?>
<!DOCTYPE svg PUBLIC "-//W3C//DTD SVG 20010904//EN"
 "http://www.w3.org/TR/2001/REC-SVG-20010904/DTD/svg10.dtd">
<svg version="1.0" xmlns="http://www.w3.org/2000/svg"
 width="1024.000000pt" height="1024.000000pt" viewBox="0 0 1024.000000 1024.000000"
 preserveAspectRatio="xMidYMid meet">

<g transform="translate(0.000000,1024.000000) scale(0.100000,-0.100000)"
fill="#000000" stroke="none">
<path d="M3882 9494 c-19 -8 -31 -10 -27 -4 11 17 -11 11 -40 -12 -26 -20 -85
-128 -85 -156 0 -7 -18 -45 -40 -84 -49 -86 -47 -101 3 -20 22 35 59 76 91
100 65 50 100 93 120 150 8 23 14 42 13 41 -1 0 -17 -7 -35 -15z"/>
<path d="M3596 9385 c-3 -8 -1 -15 3 -15 5 0 11 7 15 15 3 8 1 15 -3 15 -5 0
-11 -7 -15 -15z"/>
<path d="M3576 9313 c-16 -4 -18 -12 -14 -59 3 -33 12 -62 23 -75 19 -20 19
-20 43 42 l23 63 -23 18 c-13 10 -25 17 -28 17 -3 -1 -13 -3 -24 -6z"/>
<path d="M2775 9288 c-8 -20 9 -54 34 -68 15 -7 20 -6 25 7 5 11 -3 27 -23 47
-25 25 -31 27 -36 14z"/>
<path d="M3707 9146 c-18 -19 -49 -57 -70 -86 l-38 -51 40 23 c23 13 41 30 41
39 0 22 25 31 64 23 36 -6 59 12 61 48 2 18 -3 20 -37 15 -35 -5 -38 -4 -21 9
12 9 14 13 5 14 -8 0 -28 -15 -45 -34z"/>
<path d="M3590 9094 c0 -8 5 -12 10 -9 6 3 10 10 10 16 0 5 -4 9 -10 9 -5 0
-10 -7 -10 -16z"/>
<path d="M3898 8983 c-32 -5 -38 -23 -8 -23 18 0 18 -2 5 -41 -19 -53 -19 -59
1 -31 8 12 19 20 24 17 5 -3 16 8 24 24 9 16 22 36 30 43 12 13 10 15 -17 15
-18 0 -44 -2 -59 -4z"/>
<path d="M3536 8930 c-22 -56 -19 -65 5 -11 11 24 18 46 15 48 -2 2 -11 -14
-20 -37z"/>
<path d="M5001 8920 c-9 -28 -7 -34 11 -31 4 0 10 -8 13 -19 4 -11 10 -20 14
-20 5 0 6 -31 2 -60 -1 -3 -11 -16 -24 -30 -13 -14 -28 -34 -35 -45 -6 -11
-12 -14 -12 -7 0 7 -4 10 -10 7 -5 -3 -10 2 -11 12 0 10 -10 -8 -22 -39 -17
-44 -35 -69 -75 -103 -29 -25 -61 -49 -70 -54 -35 -20 -3 -20 83 0 50 12 113
32 140 44 76 36 162 49 268 40 161 -12 171 -12 183 -1 9 8 0 14 -35 22 -44 10
-45 11 -21 21 14 6 63 14 109 17 89 7 101 11 101 28 0 6 -11 8 -27 3 -16 -4
-65 -9 -110 -11 -80 -5 -83 -4 -83 17 0 19 4 21 30 16 31 -7 38 4 20 33 -8 12
-11 12 -28 -3 -10 -9 -22 -17 -26 -17 -4 0 -28 -14 -53 -31 -49 -34 -112 -56
-273 -95 -57 -13 -115 -31 -127 -39 -26 -17 -53 -20 -53 -5 0 6 4 10 8 10 9 0
82 67 82 76 0 14 62 83 80 89 11 4 20 14 20 22 0 9 6 24 14 32 8 9 16 27 18
41 1 14 7 28 12 31 10 8 -1 29 -15 29 -5 0 -9 -9 -9 -21 0 -17 -2 -18 -13 -7
-7 7 -22 28 -32 46 -24 40 -30 40 -44 2z"/>
<path d="M2956 8794 c2 -126 6 -155 19 -142 7 7 18 132 16 185 -1 47 -16 93
-29 93 -5 0 -8 -61 -6 -136z"/>
<path d="M3606 8888 c-3 -7 -11 -35 -20 -62 -20 -63 -20 -65 3 -59 11 3 34 -2
50 -10 17 -9 31 -11 31 -6 0 5 9 9 21 9 11 0 17 5 14 10 -4 6 -10 8 -15 5 -18
-11 -21 17 -4 36 17 19 17 20 -3 25 -14 4 -24 17 -28 35 -7 30 -42 42 -49 17z"/>
<path d="M3320 8885 c0 -4 11 -20 25 -36 13 -16 27 -45 31 -64 12 -67 20 -43
9 28 -10 68 -12 72 -38 75 -15 2 -27 0 -27 -3z"/>
<path d="M3833 8792 c-29 -39 -38 -86 -19 -101 17 -14 23 0 27 59 2 19 9 43
18 53 8 9 10 17 4 17 -5 0 -19 -13 -30 -28z"/>
<path d="M3467 8773 c-4 -3 -7 -13 -7 -22 1 -13 3 -13 11 2 11 19 8 33 -4 20z"/>
<path d="M4566 8751 c-11 -12 -14 -21 -7 -26 6 -3 11 0 11 9 0 8 6 16 13 19 6
2 9 7 6 11 -3 3 -14 -2 -23 -13z"/>
<path d="M3120 8725 c17 -20 5 -32 -15 -15 -13 11 -15 8 -15 -17 0 -35 17 -60
45 -65 11 -2 21 -12 23 -22 3 -14 0 -17 -12 -13 -12 5 -9 -3 9 -27 30 -39 54
-51 69 -36 8 8 7 11 -4 8 -10 -2 -14 5 -15 22 0 14 -15 49 -33 78 -18 30 -28
51 -22 47 16 -10 12 22 -6 39 -20 21 -41 21 -24 1z"/>
<path d="M3575 8679 c-25 -28 -34 -44 -27 -51 17 -17 3 -35 -68 -88 -37 -28
-71 -58 -75 -67 -5 -14 -1 -13 17 4 40 36 119 70 103 43 -3 -5 0 -10 8 -10 8
0 18 -7 21 -16 4 -12 2 -15 -9 -10 -11 4 -15 -1 -15 -17 0 -14 13 -31 36 -47
23 -15 31 -26 23 -28 -8 -3 -37 -26 -64 -52 -28 -26 -61 -53 -74 -60 -14 -7
-36 -26 -50 -43 -14 -17 -32 -38 -39 -46 -12 -14 -13 -14 -8 2 8 26 -3 21 -39
-19 l-33 -36 -6 41 c-3 23 -9 59 -12 81 -9 65 -22 46 -22 -32 0 -40 -7 -98
-17 -128 -20 -66 -31 -178 -18 -191 5 -5 14 20 22 62 9 48 23 85 44 115 17 24
34 44 38 44 3 0 -3 -26 -14 -57 -14 -40 -21 -86 -22 -148 -1 -75 -5 -96 -25
-128 -15 -26 -19 -41 -12 -46 7 -4 5 -13 -5 -26 -15 -19 -15 -19 -8 5 9 31 8
30 -90 -88 -42 -52 -79 -91 -82 -88 -3 3 -14 1 -24 -5 -35 -18 -21 22 37 111
79 120 90 146 97 224 6 66 -8 141 -42 228 -6 16 -12 55 -13 88 -2 58 -3 59
-23 46 -11 -7 -40 -54 -65 -103 -25 -49 -55 -100 -68 -113 -27 -29 -39 -69
-53 -175 -16 -124 4 -275 40 -295 20 -10 51 -78 51 -110 0 -27 9 -25 42 7 42
41 46 19 4 -27 -41 -45 -73 -106 -63 -117 4 -4 12 -2 18 4 14 14 42 5 32 -10
-3 -6 -1 -7 5 -3 7 4 12 14 12 23 0 12 3 13 15 3 8 -6 18 -9 23 -6 5 3 31 -2
58 -10 27 -8 90 -17 139 -21 80 -5 99 -3 168 21 43 14 83 24 88 20 6 -3 17 -3
27 1 11 4 13 8 5 13 -13 8 80 128 97 126 6 -1 26 -2 46 -2 21 -1 33 -6 29 -12
-9 -14 3 -47 19 -53 7 -3 35 6 62 19 59 29 76 30 98 5 16 -18 16 -21 1 -50 -8
-17 -12 -31 -7 -31 15 0 44 38 38 49 -7 10 21 30 39 28 6 0 11 6 13 15 3 18
-63 40 -96 31 -17 -4 -21 -2 -16 10 3 8 1 18 -5 22 -7 3 -8 0 -5 -9 4 -11 0
-16 -14 -16 -12 0 -23 4 -26 9 -3 4 -16 6 -28 4 -13 -2 -32 2 -42 10 -17 13
-15 14 24 11 24 -1 47 -8 51 -16 5 -7 9 -8 9 -2 1 51 -119 93 -270 95 -52 0
-122 4 -155 8 -44 6 -77 3 -127 -10 -37 -9 -69 -15 -72 -12 -3 3 -17 -4 -33
-15 -41 -29 -134 -74 -140 -68 -11 10 117 127 160 146 25 11 50 27 57 35 8 9
33 28 57 42 36 21 46 23 59 12 11 -9 18 -9 26 -1 7 7 24 12 40 12 23 0 154
-29 267 -60 19 -5 41 -5 50 -1 9 5 34 12 56 16 52 9 97 33 170 90 33 25 75 53
94 61 24 10 31 18 24 25 -13 13 -154 60 -253 84 -41 10 -82 22 -91 28 -12 7
-23 6 -40 -6 -24 -17 -59 -23 -59 -9 0 10 209 132 227 132 9 0 13 -6 10 -14
-4 -10 5 -9 42 5 27 10 61 16 79 13 24 -4 32 -1 32 10 0 9 -4 16 -9 16 -5 0
-7 10 -4 21 5 19 4 20 -15 10 -30 -16 -55 -14 -48 4 6 16 -5 20 -19 6 -6 -4
-49 -30 -97 -55 -84 -45 -109 -48 -70 -9 35 36 67 76 55 69 -18 -10 -16 9 2
24 8 7 15 10 15 7 0 -11 84 39 94 56 14 22 -11 42 -31 25 -27 -22 -3 40 41
107 32 48 86 149 86 160 0 3 -9 0 -20 -7 -11 -7 -46 -53 -77 -103 -58 -92 -85
-125 -102 -125 -19 0 -41 -45 -41 -86 l0 -42 -82 -22 c-46 -12 -104 -33 -130
-46 -27 -14 -48 -21 -48 -17 1 24 27 79 36 76 7 -2 23 10 38 28 26 31 28 65 3
80 -5 4 -6 13 -3 20 4 8 -2 3 -13 -10 -12 -13 -24 -21 -27 -18 -11 11 7 95 21
101 8 3 15 12 15 21 0 8 5 24 10 35 6 11 14 28 19 39 5 10 12 36 16 57 5 35 5
37 -7 19 -8 -12 -24 -20 -41 -20 -25 -1 -27 2 -22 25 3 14 15 37 25 52 20 27
20 27 -1 33 -17 6 -20 13 -17 41 2 19 3 34 2 34 -1 0 -18 -18 -39 -41z m215
-535 c0 -4 -10 -23 -22 -43 -33 -53 -96 -108 -158 -138 -61 -30 -98 -58 -180
-137 -48 -46 -130 -104 -130 -91 0 2 10 25 22 50 18 37 27 45 50 45 23 0 35
11 73 67 25 37 45 73 45 79 0 20 113 130 140 137 14 3 48 13 75 21 55 16 85
20 85 10z m-17 -301 c-13 -2 -33 -2 -45 0 -13 2 -3 4 22 4 25 0 35 -2 23 -4z
m-29 -317 c-3 -8 -14 -16 -24 -19 -19 -5 -19 -4 -2 18 18 24 35 24 26 1z m-49
-36 c3 -5 1 -10 -4 -10 -6 0 -11 5 -11 10 0 6 2 10 4 10 3 0 8 -4 11 -10z
m-297 -51 c-25 -14 -156 -25 -143 -11 11 12 49 18 115 20 35 1 41 -1 28 -9z"/>
<path d="M3485 8690 c-22 -25 -35 -25 -36 -2 -1 9 -6 0 -11 -21 -6 -21 -17
-41 -24 -44 -16 -6 -19 -43 -4 -43 6 0 11 5 11 10 1 6 3 13 4 18 2 4 6 17 10
29 4 13 11 21 15 18 4 -2 20 9 35 25 16 17 26 30 23 30 -3 0 -13 -9 -23 -20z"/>
<path d="M4482 8652 c-107 -115 -163 -183 -157 -192 11 -18 43 8 79 63 34 52
57 82 110 144 48 56 24 45 -32 -15z"/>
<path d="M3669 8668 c0 -2 -2 -11 -4 -21 -3 -15 -1 -16 11 -6 7 6 11 15 8 20
-5 9 -13 12 -15 7z"/>
<path d="M3012 8622 c-13 -27 -17 -70 -5 -59 3 4 12 2 20 -4 11 -9 12 -3 7 37
-4 27 -7 50 -8 51 -1 1 -7 -10 -14 -25z"/>
<path d="M3740 8622 c0 -7 -6 -12 -14 -12 -14 0 -42 -27 -35 -35 3 -2 18 7 34
20 17 13 27 27 23 31 -5 4 -8 2 -8 -4z"/>
<path d="M3876 8585 c-9 -26 -7 -32 5 -12 6 10 9 21 6 23 -2 3 -7 -2 -11 -11z"/>
<path d="M3922 8580 c-17 -27 -15 -38 6 -42 23 -5 49 42 30 54 -19 11 -22 10
-36 -12z"/>
<path d="M3005 8550 c-9 -15 -1 -23 21 -18 15 3 16 4 1 16 -11 9 -17 10 -22 2z"/>
<path d="M5365 8550 c-30 -4 38 -8 165 -9 493 -3 750 -39 1145 -159 452 -137
884 -381 1260 -712 96 -84 233 -222 313 -315 48 -55 90 -102 93 -105 19 -17
166 -221 219 -305 97 -154 249 -434 250 -461 0 -21 81 -184 90 -184 11 0 -15
71 -38 107 -8 13 -18 41 -23 64 -11 47 -126 289 -138 289 -4 0 -16 19 -27 43
-23 53 -121 214 -145 238 -9 9 -29 38 -44 64 -16 26 -52 72 -81 103 -30 31
-54 60 -54 66 0 26 -220 261 -385 410 -97 88 -278 226 -390 298 -38 25 -95 61
-125 81 -196 126 -539 274 -821 356 -262 76 -423 104 -734 131 -122 11 -453
11 -530 0z"/>
<path d="M3860 8536 c0 -8 -3 -22 -7 -32 -4 -11 -3 -15 4 -11 15 9 23 46 12
53 -5 3 -9 -1 -9 -10z"/>
<path d="M3285 8493 c0 -35 -17 -43 -30 -15 -11 24 -35 38 -35 20 0 -6 6 -19
13 -27 8 -9 21 -37 31 -63 19 -53 34 -67 46 -47 9 13 4 109 -6 142 -8 26 -19
20 -19 -10z"/>
<path d="M4690 8493 c-30 -14 -93 -38 -139 -53 -93 -32 -121 -50 -78 -50 15 0
27 -6 27 -12 0 -7 10 -1 23 14 14 17 59 41 127 68 112 44 115 46 103 53 -4 3
-33 -6 -63 -20z"/>
<path d="M5088 8515 c-3 -3 -23 -8 -44 -10 -87 -11 -210 -35 -248 -49 -23 -8
-69 -20 -103 -27 -35 -6 -63 -16 -63 -22 0 -11 32 -6 140 22 41 11 120 30 175
41 55 12 113 25 129 30 22 7 39 4 77 -15 53 -27 69 -31 69 -15 0 28 -111 65
-132 45z"/>
<path d="M3825 8446 c-9 -19 -23 -37 -31 -40 -9 -3 -12 -1 -9 4 3 6 2 10 -3
10 -6 0 -9 6 -8 13 0 6 -3 13 -9 14 -5 2 -10 -5 -10 -15 0 -11 -9 -18 -27 -20
-16 -2 -28 -8 -28 -13 0 -6 -4 -7 -10 -4 -5 3 -10 0 -10 -8 0 -8 -7 -17 -15
-21 -17 -6 -20 -41 -6 -51 6 -3 15 3 21 12 10 16 10 16 6 -2 -3 -11 -2 -26 3
-34 7 -11 20 -3 61 35 50 46 69 75 90 129 14 37 4 30 -15 -9z"/>
<path d="M3354 8433 c-10 -44 -25 -106 -31 -128 -4 -14 -2 -17 5 -10 16 15 60
138 55 153 -8 21 -22 13 -29 -15z"/>
<path d="M2675 8430 c4 -14 11 -29 16 -34 5 -6 9 -21 9 -34 0 -13 4 -20 10
-17 6 3 10 -1 10 -9 0 -10 -9 -16 -25 -16 -34 0 -32 -10 9 -44 19 -15 37 -39
41 -53 5 -23 7 -22 38 24 28 41 31 52 23 76 -6 16 -16 25 -24 22 -7 -3 -10 0
-7 6 4 6 -2 8 -17 4 -21 -5 -27 -1 -43 34 -22 50 -52 80 -40 41z m95 -129 c0
-33 -16 -43 -29 -17 -8 13 -10 29 -7 35 9 15 36 2 36 -18z"/>
<path d="M5544 8428 c-7 -11 26 -17 95 -17 57 -1 123 -6 334 -30 38 -4 70 -4
73 0 2 4 -22 10 -53 14 -32 3 -87 11 -123 16 -83 14 -321 26 -326 17z"/>
<path d="M3066 8404 c-9 -8 -16 -19 -16 -24 0 -11 54 -50 69 -50 6 0 11 -4 11
-10 0 -5 5 -10 11 -10 8 0 8 4 0 14 -8 9 -8 22 -2 38 18 49 -36 80 -73 42z"/>
<path d="M2967 8395 c-4 -11 -6 -22 -6 -25 0 -3 -4 -17 -10 -32 -6 -16 -7 -28
-2 -28 15 0 33 47 29 76 -3 25 -4 26 -11 9z"/>
<path d="M4281 8405 c0 -6 -25 -36 -53 -67 -46 -49 -58 -57 -87 -56 -19 1 -37
-4 -39 -10 -2 -6 -10 -8 -18 -5 -8 3 -21 3 -29 -1 -20 -7 -7 -38 14 -32 9 3
38 7 65 10 40 5 47 3 42 -9 -6 -18 -7 -18 32 -4 18 6 30 14 28 18 -6 8 29 41
43 41 5 0 12 7 15 16 3 8 2 13 -2 10 -4 -2 -14 -1 -22 4 -11 7 -10 13 4 35 9
14 15 34 13 43 -3 9 -5 12 -6 7z"/>
<path d="M4995 8395 l-50 -13 40 0 c22 -1 69 5 105 12 l65 14 -55 0 c-30 0
-77 -6 -105 -13z"/>
<path d="M4560 8386 c0 -8 -15 -16 -37 -20 -56 -9 -93 -7 -93 4 0 12 -93 -23
-97 -37 -3 -7 14 -7 48 0 39 8 53 7 59 -3 6 -9 13 -9 28 -1 11 6 36 11 54 11
36 0 125 -42 146 -68 10 -14 14 -14 21 -4 5 9 17 11 37 5 16 -4 32 -8 37 -9 4
-1 9 -3 12 -4 3 -1 8 -3 13 -4 9 -3 72 -31 142 -64 30 -15 58 -28 63 -30 4 -2
3 8 -2 21 -8 20 -6 30 10 48 25 28 24 30 -8 28 -16 -1 -45 5 -67 14 -21 10
-53 17 -71 17 -20 0 -35 6 -38 15 -9 21 5 26 43 15 19 -5 36 -8 38 -5 12 12
-94 30 -171 28 -82 -2 -87 -1 -78 16 13 24 5 31 -29 25 -15 -4 -31 -1 -34 5
-10 15 -26 14 -26 -3z"/>
<path d="M3295 8330 c-3 -5 -1 -10 4 -10 6 0 11 5 11 10 0 6 -2 10 -4 10 -3 0
-8 -4 -11 -10z"/>
<path d="M6299 8329 c13 -5 62 -19 110 -30 89 -22 330 -102 414 -138 54 -23
89 -29 42 -6 -147 69 -508 185 -570 184 -18 0 -17 -1 4 -10z"/>
<path d="M3291 8293 c-1 -6 -4 -20 -7 -30 -5 -17 -5 -17 6 0 6 10 9 23 6 30
-3 9 -5 9 -5 0z"/>
<path d="M3665 8270 c-3 -5 -1 -10 4 -10 6 0 11 5 11 10 0 6 -2 10 -4 10 -3 0
-8 -4 -11 -10z"/>
<path d="M3972 8225 c-62 -34 -62 -35 7 -31 72 4 82 10 55 36 -19 18 -20 18
-62 -5z"/>
<path d="M4690 8241 c0 -6 5 -13 10 -16 6 -3 10 1 10 9 0 9 -4 16 -10 16 -5 0
-10 -4 -10 -9z"/>
<path d="M4775 8219 c-5 -14 -2 -25 6 -30 12 -8 11 -11 -1 -19 -8 -5 -10 -10
-5 -10 6 0 4 -4 -4 -9 -12 -8 -12 -12 2 -26 16 -15 17 -15 18 2 1 10 1 24 0
31 -2 15 43 16 70 2 32 -17 21 3 -19 36 -55 45 -60 47 -67 23z"/>
<path d="M3870 8180 c0 -5 7 -7 15 -4 8 4 15 8 15 10 0 2 -7 4 -15 4 -8 0 -15
-4 -15 -10z"/>
<path d="M4980 8135 c7 -9 15 -13 17 -11 7 7 -7 26 -19 26 -6 0 -6 -6 2 -15z"/>
<path d="M6930 8125 c0 -3 46 -28 103 -56 122 -61 119 -49 -5 15 -87 46 -98
50 -98 41z"/>
<path d="M4085 8100 c11 -5 34 -9 50 -9 26 0 27 2 10 9 -11 5 -33 9 -50 9 -26
0 -27 -2 -10 -9z"/>
<path d="M4219 8085 c36 -16 98 -21 71 -6 -8 5 -35 12 -60 15 l-45 7 34 -16z"/>
<path d="M4847 8076 c-12 -9 -14 -16 -7 -21 12 -7 40 11 40 26 0 13 -12 11
-33 -5z"/>
<path d="M2510 8059 c0 -9 11 -41 24 -70 15 -33 25 -46 25 -33 1 11 -4 25 -10
31 -6 6 -17 28 -24 49 -8 22 -14 32 -15 23z"/>
<path d="M5220 8020 c0 -5 9 -10 21 -10 11 0 17 5 14 10 -3 6 -13 10 -21 10
-8 0 -14 -4 -14 -10z"/>
<path d="M7251 7952 c124 -75 179 -105 179 -98 0 15 -261 166 -286 166 -4 0
45 -31 107 -68z"/>
<path d="M2327 7965 c-4 -8 -11 -14 -16 -13 -5 2 -9 -1 -10 -5 0 -4 -7 -15
-16 -23 -14 -14 -17 -14 -35 8 -14 16 -19 19 -20 8 0 -8 11 -24 25 -34 28 -21
25 -36 -8 -37 -19 -1 -18 -2 8 -14 70 -32 108 -6 103 71 -3 47 -20 69 -31 39z"/>
<path d="M2400 7923 c0 -34 13 -44 23 -19 3 8 -1 22 -8 33 -13 17 -14 16 -15
-14z"/>
<path d="M4052 7941 c-17 -11 0 -18 62 -26 33 -5 45 -3 49 8 8 23 -82 37 -111
18z"/>
<path d="M5150 7940 c0 -20 69 -39 158 -43 50 -2 92 -1 92 3 0 11 -51 31 -62
24 -6 -4 -14 0 -19 7 -8 12 -11 12 -22 -1 -16 -20 -106 -15 -114 6 -6 16 -33
20 -33 4z"/>
<path d="M4210 7921 c0 -5 7 -11 14 -14 10 -4 13 -1 9 9 -6 15 -23 19 -23 5z"/>
<path d="M2567 7913 c-4 -3 -3 -11 1 -17 5 -6 14 -31 21 -56 22 -74 33 -100
43 -100 6 0 7 7 4 16 -4 10 -2 13 6 8 8 -5 9 -1 4 12 -4 10 -10 31 -13 47 -3
15 -10 27 -15 27 -5 0 -16 16 -24 35 -15 37 -17 39 -27 28z"/>
<path d="M2869 7883 c-7 -46 -7 -63 0 -58 13 7 20 55 10 61 -5 3 -10 2 -10 -3z"/>
<path d="M2373 7840 c9 -25 9 -33 -2 -39 -12 -8 -12 -25 3 -118 9 -59 16 -122
16 -140 0 -17 5 -35 12 -39 11 -7 9 51 -8 212 -5 47 -3 69 11 98 19 40 12 55
-27 56 -14 0 -15 -4 -5 -30z"/>
<path d="M7450 7836 c0 -5 116 -89 140 -100 22 -12 -60 62 -95 84 -29 19 -45
25 -45 16z"/>
<path d="M4415 7759 c-4 -6 -5 -12 -2 -15 2 -3 7 2 10 11 7 17 1 20 -8 4z"/>
<path d="M2865 7720 c-4 -17 -5 -34 -2 -36 2 -3 7 10 11 27 8 42 0 50 -9 9z"/>
<path d="M3108 7683 c-14 -21 -30 -49 -37 -63 -9 -19 -5 -17 18 10 26 30 57
90 47 90 -2 0 -14 -17 -28 -37z"/>
<path d="M4302 7693 c-1 -12 -6 -25 -12 -28 -5 -3 -10 -21 -10 -40 0 -34 -14
-54 -25 -35 -8 13 -52 13 -61 -1 -4 -7 0 -9 14 -5 12 4 23 2 28 -5 4 -7 3 -9
-4 -5 -6 3 -18 -1 -26 -10 -13 -12 -20 -13 -30 -5 -10 8 -16 7 -26 -4 -7 -9
-30 -15 -54 -16 l-41 -1 33 -9 c18 -6 51 -28 72 -49 22 -22 48 -41 58 -42 9 0
22 -2 27 -3 6 -2 13 -3 17 -4 4 0 -5 -25 -19 -53 -26 -52 -37 -108 -22 -108
15 0 49 58 49 84 0 14 4 26 9 26 18 0 21 33 4 52 -12 13 -13 22 -6 29 16 16
30 4 38 -30 7 -32 35 -64 35 -41 0 10 3 10 14 1 11 -9 18 -8 30 5 13 12 20 13
30 5 8 -7 17 -8 20 -3 3 5 -26 33 -65 61 -39 29 -69 55 -67 57 3 2 38 6 79 10
41 3 81 10 89 15 10 6 -2 7 -35 3 -33 -4 -47 -3 -40 4 14 14 115 41 115 31 0
-5 -4 -9 -10 -9 -5 0 -10 -4 -10 -9 0 -15 73 9 97 32 28 25 23 33 -9 16 -12
-7 -53 -13 -89 -14 l-66 0 2 38 c1 21 -2 37 -9 37 -5 0 -30 -19 -53 -42 l-43
-43 5 35 c3 19 3 29 -1 23 -11 -25 -23 -12 -27 30 -2 23 -4 32 -5 20z"/>
<path d="M3540 7675 c-58 -14 -154 -54 -148 -61 3 -2 22 3 44 10 21 8 66 22
99 32 33 9 64 21 70 26 12 10 3 10 -65 -7z"/>
<path d="M3282 7639 c-31 -29 -46 -53 -19 -30 8 6 18 7 22 3 5 -4 5 -2 1 5 -3
6 3 18 16 27 12 9 20 18 17 20 -3 3 -19 -8 -37 -25z"/>
<path d="M2481 7630 c0 -14 4 -34 9 -45 7 -17 9 -16 9 10 0 17 -4 37 -9 45 -8
12 -10 10 -9 -10z"/>
<path d="M1948 7623 c6 -2 18 -2 25 0 6 3 1 5 -13 5 -14 0 -19 -2 -12 -5z"/>
<path d="M3535 7621 c-14 -6 -7 -9 29 -14 27 -4 67 -7 90 -7 38 1 40 2 22 15
-21 16 -106 19 -141 6z"/>
<path d="M2257 7559 c7 -7 15 -10 18 -7 3 3 -2 9 -12 12 -14 6 -15 5 -6 -5z"/>
<path d="M3858 7553 c7 -3 16 -2 19 1 4 3 -2 6 -13 5 -11 0 -14 -3 -6 -6z"/>
<path d="M3913 7553 c9 -2 25 -2 35 0 9 3 1 5 -18 5 -19 0 -27 -2 -17 -5z"/>
<path d="M2310 7531 c14 -11 30 -21 35 -21 11 0 -7 14 -40 31 -13 7 -12 3 5
-10z"/>
<path d="M2638 7539 c-9 -24 8 -47 24 -31 8 8 8 12 1 12 -6 0 -13 8 -15 18 -3
15 -4 15 -10 1z"/>
<path d="M4003 7543 c9 -2 25 -2 35 0 9 3 1 5 -18 5 -19 0 -27 -2 -17 -5z"/>
<path d="M7900 7485 c40 -45 53 -56 59 -49 5 4 -40 49 -74 74 -11 8 -4 -4 15
-25z"/>
<path d="M2631 7444 c0 -60 13 -121 22 -107 4 7 10 34 14 60 4 40 2 51 -16 67
l-21 19 1 -39z"/>
<path d="M4024 7453 c11 -11 45 -13 51 -3 4 6 -7 10 -26 10 -18 0 -29 -3 -25
-7z"/>
<path d="M2531 7434 c0 -11 3 -14 6 -6 3 7 2 16 -1 19 -3 4 -6 -2 -5 -13z"/>
<path d="M3985 7410 c-13 -6 -15 -9 -5 -9 8 0 22 4 30 9 18 12 2 12 -25 0z"/>
<path d="M4388 7352 c-7 -25 30 -51 43 -30 11 16 11 20 1 33 -13 18 -39 16
-44 -3z"/>
<path d="M3598 7343 c7 -3 16 -2 19 1 4 3 -2 6 -13 5 -11 0 -14 -3 -6 -6z"/>
<path d="M8065 7320 c10 -11 20 -20 23 -20 3 0 -3 9 -13 20 -10 11 -20 20 -23
20 -3 0 3 -9 13 -20z"/>
<path d="M1620 7301 c0 -12 29 -23 42 -15 6 4 5 10 -3 15 -18 11 -39 11 -39 0z"/>
<path d="M3620 7288 c0 -4 9 -8 20 -8 11 0 20 4 20 9 0 6 -9 9 -20 8 -11 -1
-20 -5 -20 -9z"/>
<path d="M1396 7278 c5 -8 1 -9 -12 -4 -14 5 -16 4 -7 -5 6 -6 16 -8 22 -5 14
9 14 26 0 26 -5 0 -7 -5 -3 -12z"/>
<path d="M3726 7241 c-4 -7 -5 -15 -2 -18 9 -9 19 4 14 18 -4 11 -6 11 -12 0z"/>
<path d="M3683 7215 c-8 -22 6 -33 17 -15 13 20 12 30 0 30 -6 0 -13 -7 -17
-15z"/>
<path d="M1484 7206 c-7 -18 18 -72 31 -68 6 1 11 7 11 12 1 6 2 15 3 21 2 19
19 -1 26 -30 6 -28 46 -71 65 -71 6 0 16 -12 22 -27 6 -16 27 -43 47 -61 l36
-32 -45 5 c-80 11 -87 14 -100 45 -14 33 -35 41 -27 10 3 -11 1 -20 -5 -20
-11 0 13 -41 43 -75 61 -68 95 -97 150 -124 34 -17 67 -34 73 -39 35 -27 226
-77 226 -60 0 14 -91 200 -114 232 -12 17 -30 48 -41 70 -11 23 -31 46 -44 52
-12 7 -42 30 -65 52 -41 40 -142 102 -165 102 -9 0 -9 -5 -1 -21 17 -30 6 -34
-14 -4 -11 17 -25 25 -46 25 -16 0 -32 5 -35 10 -9 14 -25 12 -31 -4z m241
-157 c6 -12 13 -21 17 -21 4 1 21 -12 39 -29 17 -16 37 -29 45 -29 7 0 17 -6
21 -13 4 -8 24 -24 43 -38 43 -30 50 -39 49 -64 0 -13 -3 -15 -6 -6 -5 11 -7
11 -14 0 -7 -12 -9 -11 -9 1 0 8 -9 21 -20 28 -12 7 -20 8 -20 2 0 -33 -79 12
-80 46 0 6 -9 19 -20 29 -11 10 -20 23 -20 29 0 6 -5 18 -10 26 -9 13 -11 13
-21 0 -8 -12 -9 -9 -4 10 5 23 5 23 -8 8 -10 -13 -16 -15 -25 -6 -22 22 -11
45 23 47 6 1 15 -9 20 -20z m75 -25 c0 -2 -7 -4 -15 -4 -8 0 -15 4 -15 10 0 5
7 7 15 4 8 -4 15 -8 15 -10z"/>
<path d="M2657 7168 c6 -63 -5 -75 -25 -28 -12 27 -18 30 -55 29 -23 0 -36 -3
-30 -6 10 -3 9 -8 -3 -20 -10 -10 -12 -19 -5 -26 5 -5 7 -15 4 -22 -2 -7 5
-16 16 -20 12 -3 26 -15 32 -26 9 -19 9 -19 -10 -10 -34 19 -69 13 -77 -11 -7
-24 -4 -35 8 -30 5 1 8 -7 8 -18 0 -24 17 -26 42 -3 16 14 18 14 18 0 0 -11 6
-13 21 -10 20 6 21 3 15 -23 -9 -34 -9 -33 -7 -61 0 -13 7 -23 15 -23 24 0 29
20 10 35 -23 16 -12 30 24 30 19 0 28 6 32 25 l6 25 17 -31 c8 -17 24 -37 33
-45 14 -10 12 -6 -4 18 -25 36 -55 103 -46 103 3 0 12 -6 19 -12 29 -26 41
-35 81 -57 23 -13 48 -21 55 -19 7 2 -4 12 -24 22 -49 23 -52 57 -4 50 17 -3
43 -1 57 5 23 9 23 10 -15 12 -22 1 -51 3 -65 3 -39 2 -53 14 -36 32 17 16 30
19 21 4 -9 -15 51 -12 63 3 18 21 -1 41 -27 28 -12 -7 -25 -10 -29 -7 -5 3
-23 -4 -40 -14 -38 -23 -42 -13 -7 20 28 27 32 40 10 40 -8 0 -15 5 -15 11 0
7 -10 9 -26 5 -25 -7 -26 -5 -20 21 6 23 5 26 -5 16 -10 -11 -15 -8 -25 15
-11 24 -12 21 -7 -30z m45 -60 c-7 -7 -12 -8 -12 -2 0 14 12 26 19 19 2 -3 -1
-11 -7 -17z m-48 -53 c3 -8 1 -15 -4 -15 -6 0 -10 7 -10 15 0 8 2 15 4 15 2 0
6 -7 10 -15z"/>
<path d="M2765 7200 c-3 -5 -1 -10 4 -10 6 0 11 5 11 10 0 6 -2 10 -4 10 -3 0
-8 -4 -11 -10z"/>
<path d="M870 7170 c0 -6 13 -37 30 -70 16 -32 32 -77 36 -99 7 -46 24 -66 24
-29 0 35 -35 154 -54 182 -17 26 -36 34 -36 16z"/>
<path d="M3650 7144 c-6 -14 -10 -29 -10 -34 0 -10 -70 -43 -77 -36 -3 3 0 12
6 20 8 10 9 16 1 21 -26 16 -32 -81 -7 -112 7 -10 15 -9 35 5 24 18 26 18 71
-5 56 -28 64 -29 56 -3 -4 13 -2 20 7 20 8 1 6 6 -6 15 -27 21 -35 19 -29 -7
5 -19 3 -21 -8 -10 -11 10 -11 16 -1 33 12 18 11 21 -7 26 -40 10 -11 73 34
73 26 0 16 6 -23 13 -29 6 -34 3 -42 -19z"/>
<path d="M3740 7160 c0 -5 5 -10 10 -10 6 0 10 5 10 10 0 6 -4 10 -10 10 -5 0
-10 -4 -10 -10z"/>
<path d="M3189 7083 c-15 -18 -3 -29 15 -14 8 6 26 10 40 7 14 -3 26 0 26 5 0
10 -4 11 -43 14 -15 1 -32 -4 -38 -12z"/>
<path d="M3722 7083 c-6 -2 -9 -9 -6 -14 3 -6 11 -5 20 2 12 10 13 9 8 -5 -4
-12 0 -16 15 -16 25 0 26 6 7 26 -15 15 -22 16 -44 7z"/>
<path d="M3177 7038 c-24 -13 -11 -28 24 -28 22 0 28 4 22 13 -4 6 4 4 19 -5
25 -16 26 -16 26 6 0 19 -6 22 -37 23 -21 0 -45 -4 -54 -9z"/>
<path d="M3750 7022 c0 -13 43 -26 62 -19 7 3 2 6 -12 6 -15 1 -31 6 -38 13
-9 9 -12 9 -12 0z"/>
<path d="M3180 6986 c0 -9 17 -18 43 -24 23 -5 51 -13 62 -17 14 -6 17 -5 10
3 -5 6 -34 20 -62 31 -42 17 -53 18 -53 7z"/>
<path d="M3345 6970 c3 -5 10 -10 16 -10 5 0 9 5 9 10 0 6 -7 10 -16 10 -8 0
-12 -4 -9 -10z"/>
<path d="M3595 6969 c-4 -6 -5 -12 -2 -15 2 -3 7 2 10 11 7 17 1 20 -8 4z"/>
<path d="M3755 6971 c-3 -5 -1 -12 5 -16 5 -3 10 1 10 9 0 18 -6 21 -15 7z"/>
<path d="M3616 6945 c-8 -31 11 -72 26 -57 11 11 2 68 -12 77 -4 3 -11 -6 -14
-20z"/>
<path d="M830 6941 c13 -25 27 -34 41 -26 13 9 -18 45 -38 45 -10 0 -11 -5 -3
-19z"/>
<path d="M2750 6951 c0 -13 18 -25 85 -60 33 -18 51 -26 41 -19 -11 7 -33 24
-50 38 -41 33 -76 52 -76 41z"/>
<path d="M2556 6919 c-7 -19 -33 -83 -56 -142 -25 -62 -51 -112 -62 -118 -28
-15 -22 -28 10 -20 34 9 61 61 101 202 30 103 34 142 7 78z"/>
<path d="M3324 6942 c4 -7 2 -12 -5 -12 -7 0 -2 -11 11 -25 21 -22 48 -26 35
-5 -3 4 0 10 7 12 9 3 9 6 0 12 -7 4 -12 2 -12 -3 0 -6 -7 -11 -16 -11 -10 0
-14 6 -11 15 4 8 1 17 -5 21 -7 4 -8 3 -4 -4z"/>
<path d="M3090 6900 c0 -5 9 -10 21 -10 11 0 17 5 14 10 -3 6 -13 10 -21 10
-8 0 -14 -4 -14 -10z"/>
<path d="M8411 6875 c12 -22 29 -47 37 -55 20 -20 -13 37 -40 71 -17 20 -16
18 3 -16z"/>
<path d="M3453 6893 c-7 -2 -13 -11 -13 -19 0 -16 28 -18 50 -4 13 9 13 11 0
20 -16 11 -19 11 -37 3z"/>
<path d="M3736 6875 c-3 -9 0 -15 9 -15 8 0 15 7 15 15 0 8 -4 15 -9 15 -5 0
-11 -7 -15 -15z"/>
<path d="M3475 6850 c-8 -13 5 -13 25 0 13 8 13 10 -2 10 -9 0 -20 -4 -23 -10z"/>
<path d="M3620 6828 c0 -9 5 -20 10 -23 13 -8 13 5 0 25 -8 13 -10 13 -10 -2z"/>
<path d="M3159 6789 c-15 -5 -1 -7 39 -8 34 -1 62 1 62 3 0 8 -78 11 -101 5z"/>
<path d="M3280 6789 c0 -11 43 -19 76 -13 54 10 45 21 -16 21 -33 0 -60 -4
-60 -8z"/>
<path d="M3090 6779 c0 -5 5 -7 10 -4 6 3 10 8 10 11 0 2 -4 4 -10 4 -5 0 -10
-5 -10 -11z"/>
<path d="M1285 6728 c8 -38 60 -146 82 -168 8 -8 13 -10 12 -5 -2 6 1 21 5 34
6 18 2 29 -22 55 -17 17 -38 50 -47 74 -20 50 -40 56 -30 10z"/>
<path d="M2962 6719 c-23 -9 -24 -16 -13 -99 1 -3 9 7 19 23 10 15 22 24 25
20 8 -8 7 14 -1 43 -6 18 -11 20 -30 13z"/>
<path d="M3013 6723 c-7 -3 -13 -12 -13 -21 0 -15 2 -15 17 1 18 18 16 27 -4
20z"/>
<path d="M8520 6695 c6 -16 26 -54 44 -85 18 -30 53 -94 76 -142 24 -48 46
-85 49 -83 6 6 -136 285 -162 317 l-17 23 10 -30z"/>
<path d="M1897 6669 c17 -17 45 -21 40 -6 -2 7 -14 14 -28 15 -19 3 -22 1 -12
-9z"/>
<path d="M975 6660 c-3 -5 -1 -10 4 -10 6 0 11 5 11 10 0 6 -2 10 -4 10 -3 0
-8 -4 -11 -10z"/>
<path d="M1131 6666 c2 -2 15 -9 29 -15 24 -11 24 -11 6 3 -16 13 -49 24 -35
12z"/>
<path d="M1820 6642 c0 -33 12 -82 20 -82 4 0 8 12 8 27 0 14 7 32 16 38 15
12 15 13 -1 19 -10 3 -24 9 -30 12 -8 3 -13 -2 -13 -14z"/>
<path d="M2210 6635 c-10 -19 -11 -30 -2 -50 14 -31 15 -35 4 -35 -5 0 -15 11
-22 25 -14 26 -30 33 -30 14 0 -6 7 -17 15 -25 23 -23 18 -35 -10 -28 -29 7
-34 -10 -7 -25 14 -9 15 -12 3 -20 -8 -5 -11 -16 -8 -25 3 -8 2 -18 -3 -21 -5
-3 -16 -20 -25 -37 -14 -30 -14 -33 4 -51 20 -21 41 -16 41 9 0 8 5 12 11 8 6
-3 8 -17 5 -30 -4 -14 -2 -24 4 -24 5 0 10 13 10 29 0 16 8 39 18 52 l19 22
-1 -23 c-1 -13 5 -25 12 -27 7 -3 12 5 13 19 l0 23 10 -23 c6 -17 14 -22 28
-17 16 5 24 -5 47 -52 49 -104 42 -243 -11 -243 -8 0 -15 -7 -15 -15 0 -8 -3
-15 -8 -15 -19 0 -74 -182 -66 -217 8 -31 24 -12 24 31 0 28 23 108 43 154 15
31 22 15 41 -88 14 -74 65 -225 66 -194 0 12 -37 188 -46 219 -4 11 12 -8 34
-41 23 -36 69 -85 109 -117 38 -31 75 -69 83 -84 25 -49 94 -153 102 -153 4 0
10 10 12 23 11 58 36 150 60 227 24 76 27 97 24 205 -3 116 -5 122 -40 190
-20 39 -42 84 -50 100 -39 89 -143 197 -179 188 -28 -8 -23 -21 15 -37 34 -14
76 -63 76 -88 0 -8 -5 -19 -12 -26 -8 -8 -8 -15 1 -26 10 -11 9 -19 -1 -36
-11 -18 -21 -21 -66 -18 -28 2 -51 1 -49 -2 1 -3 14 -28 29 -56 26 -50 69
-189 83 -269 12 -71 -11 -26 -53 105 -22 69 -52 152 -65 184 -25 59 -81 122
-141 160 -26 17 -28 20 -13 30 19 15 28 72 10 69 -7 -2 -13 2 -13 7 0 6 7 10
15 10 8 0 15 7 15 16 0 14 -3 14 -15 4 -9 -7 -19 -9 -23 -5 -4 4 -1 10 6 12 6
3 12 14 12 26 0 20 0 20 -25 -3 -14 -13 -28 -20 -32 -16 -5 4 2 16 15 26 30
25 20 48 -21 46 -24 -1 -32 4 -35 19 -6 33 -18 37 -32 10z m0 -198 c0 -2 -8
-13 -17 -24 -12 -13 -24 -18 -36 -14 -17 6 -17 8 -3 20 8 7 20 10 26 6 5 -3
10 -1 10 4 0 6 5 11 10 11 6 0 10 -2 10 -3z"/>
<path d="M1040 6633 c0 -3 6 -14 14 -22 8 -9 18 -32 23 -51 5 -19 17 -36 26
-38 13 -3 11 7 -11 57 -15 34 -32 61 -39 61 -7 0 -13 -3 -13 -7z"/>
<path d="M1234 6597 c32 -29 73 -54 121 -72 47 -18 75 -35 78 -47 3 -10 19
-26 36 -35 17 -10 31 -23 31 -30 0 -20 30 -43 56 -43 22 0 18 6 -35 50 -66 55
-79 70 -59 70 7 1 -2 7 -20 15 -18 8 -36 24 -42 37 -6 16 -9 18 -9 7 -1 -15
-7 -16 -43 -7 -24 6 -58 23 -77 37 -72 56 -84 62 -37 18z"/>
<path d="M2856 6623 c-4 -9 -5 -16 -4 -17 2 -1 11 -8 20 -15 16 -12 18 -11 16
13 -3 30 -24 42 -32 19z"/>
<path d="M2855 6580 c-3 -5 -1 -10 4 -10 6 0 11 5 11 10 0 6 -2 10 -4 10 -3 0
-8 -4 -11 -10z"/>
<path d="M1807 6553 c-7 -13 12 -73 23 -73 6 0 10 4 10 9 0 5 9 7 20 4 11 -3
20 -2 20 2 0 4 -9 18 -20 32 -11 14 -20 22 -20 18 0 -4 -6 -2 -14 4 -8 7 -16
8 -19 4z"/>
<path d="M2696 6496 c5 -28 14 -33 25 -14 5 10 17 14 29 11 11 -3 20 -1 20 5
0 5 -18 12 -39 14 -34 3 -38 1 -35 -16z"/>
<path d="M617 6481 c54 -45 353 -153 353 -127 0 8 -29 21 -67 31 -104 27 -256
85 -279 106 -11 10 -24 19 -30 19 -5 -1 6 -13 23 -29z"/>
<path d="M1500 6470 c14 -11 36 -19 50 -19 23 0 23 1 -7 12 -17 7 -35 15 -39
20 -4 4 -12 7 -18 7 -6 0 0 -9 14 -20z"/>
<path d="M1850 6470 c0 -5 5 -10 10 -10 6 0 10 5 10 10 0 6 -4 10 -10 10 -5 0
-10 -4 -10 -10z"/>
<path d="M5120 6459 c-41 -10 -133 -23 -205 -29 -71 -6 -172 -19 -223 -30
-230 -47 -379 -184 -359 -330 6 -46 33 -94 48 -84 7 4 6 10 -1 19 -18 22 -16
116 4 153 29 55 86 111 155 152 94 55 206 83 428 105 l61 7 -131 -134 c-112
-113 -337 -391 -418 -518 l-16 -24 -84 14 c-46 7 -123 13 -170 13 l-85 -1 -12
42 c-24 92 -134 145 -258 126 -277 -42 -470 -342 -383 -597 42 -125 135 -193
276 -201 103 -6 194 20 308 86 103 61 275 230 374 369 40 57 76 105 81 108 6
4 133 -17 186 -31 9 -2 8 -18 -2 -61 -8 -32 -15 -115 -16 -184 -3 -122 -2
-127 27 -185 20 -38 44 -67 67 -83 l36 -23 -44 -65 c-36 -53 -44 -72 -44 -109
0 -60 13 -81 59 -95 99 -29 233 95 345 319 25 52 46 98 46 103 0 31 46 100 83
125 23 15 75 59 116 98 46 45 71 63 67 50 -12 -38 -10 -131 3 -162 19 -47 80
-58 140 -27 36 18 143 122 171 165 18 29 21 31 16 10 -18 -70 -25 -122 -19
-137 12 -34 36 -53 67 -53 41 0 120 68 175 151 23 34 41 59 41 56 0 -3 -13
-41 -30 -84 -34 -88 -37 -108 -15 -117 30 -11 60 15 88 76 69 152 178 298 222
298 22 0 19 -19 -25 -137 -51 -133 -59 -183 -36 -218 20 -31 56 -33 103 -4 45
28 223 263 209 276 -3 4 -8 4 -9 2 -2 -2 -40 -54 -85 -114 -77 -106 -145 -171
-165 -158 -15 9 -1 63 43 168 53 123 61 174 31 204 -28 28 -50 27 -96 -5 -42
-28 -60 -48 -106 -112 -17 -24 -33 -41 -35 -39 -3 2 5 26 16 52 11 26 21 61
23 79 2 27 -1 31 -22 31 -20 0 -31 -14 -67 -84 -72 -139 -201 -291 -246 -291
-36 0 -18 88 46 235 31 70 53 131 50 136 -3 5 -18 9 -34 9 -27 0 -33 -7 -64
-67 -52 -105 -182 -264 -239 -295 -82 -43 -112 -24 -102 64 15 130 33 164 142
273 138 138 273 345 305 467 25 96 -26 126 -114 68 -98 -65 -247 -310 -328
-538 -31 -88 -45 -114 -95 -169 -65 -73 -158 -150 -163 -135 -1 5 20 76 48
158 28 81 48 154 45 162 -3 8 -16 12 -31 10 -22 -3 -35 -22 -92 -132 -67 -128
-160 -251 -179 -233 -18 19 -2 99 41 207 56 138 58 160 16 160 -37 0 -56 -35
-99 -180 -36 -119 -39 -170 -13 -193 46 -42 104 -8 178 102 24 36 44 63 44 60
0 -15 -61 -183 -71 -196 -7 -7 -53 -39 -103 -70 -50 -31 -110 -74 -134 -95
-43 -39 -44 -39 -64 -21 -27 24 -54 80 -61 127 -10 67 19 318 41 354 5 7 32
18 60 26 66 17 133 62 125 84 -5 12 -8 12 -11 3 -5 -15 -119 -71 -145 -71 -13
0 -17 5 -13 18 3 9 10 37 16 62 29 111 168 416 245 535 17 28 55 76 84 108 29
31 49 57 45 56 -5 0 -43 -9 -84 -20z m-57 -73 c-106 -120 -255 -399 -319 -596
-14 -44 -28 -81 -32 -84 -8 -4 -172 21 -179 28 -5 5 151 235 279 410 64 89
173 205 232 248 51 37 55 35 19 -6z m854 -148 c-8 -60 -85 -208 -161 -309 -64
-86 -196 -233 -203 -226 -5 5 19 70 55 147 17 36 37 82 46 103 29 71 129 231
174 279 30 33 53 48 70 48 23 0 24 -2 19 -42z m-1924 -332 c42 -18 85 -64 96
-104 9 -30 8 -32 -17 -38 -83 -18 -135 -37 -178 -66 -86 -58 -116 -130 -74
-176 83 -88 281 33 297 183 l6 45 88 0 c48 0 122 -5 163 -11 l75 -11 -40 -57
c-124 -173 -298 -350 -418 -425 -214 -135 -440 -83 -495 113 -27 97 -17 176
40 300 58 125 139 205 249 243 60 21 164 23 208 4z m97 -216 c-26 -97 -108
-171 -189 -174 -48 -1 -71 18 -71 56 0 40 32 82 87 115 53 31 164 64 176 53 5
-4 3 -27 -3 -50z m1003 -397 c-37 -92 -126 -252 -164 -298 -73 -88 -134 -120
-168 -86 -57 57 24 202 137 246 23 10 42 22 42 27 0 6 -7 8 -15 4 -23 -9 -18
4 12 28 25 20 166 116 170 116 1 0 -5 -17 -14 -37z"/>
<path d="M1813 6441 c-7 -11 -51 -33 -102 -51 -50 -18 -91 -37 -91 -41 0 -5
-29 -22 -64 -38 -35 -16 -68 -35 -72 -43 -26 -44 -104 -50 -158 -13 -34 23
-36 23 -36 5 0 -13 -9 -22 -27 -27 -23 -6 -15 -9 46 -19 40 -7 76 -15 78 -18
3 -3 -8 -16 -23 -30 l-29 -25 30 -2 c264 -13 618 -17 639 -8 14 5 3 6 -31 2
-29 -3 -53 -3 -53 0 0 4 15 14 32 23 31 16 31 17 11 25 -26 9 -37 25 -23 34
12 8 13 65 1 65 -5 0 -28 -9 -52 -19 -24 -11 -79 -24 -122 -30 -43 -6 -89 -14
-103 -17 -35 -9 -30 15 6 29 17 6 30 17 30 24 0 7 3 13 8 14 4 0 19 3 35 5 15
3 27 1 27 -4 0 -11 38 -13 45 -1 4 5 0 9 -7 9 -21 0 13 26 49 38 53 17 51 -13
-1 -32 -35 -12 -8 -18 29 -6 23 8 41 22 48 38 15 34 54 70 87 79 19 6 7 10
-50 15 -41 4 -82 8 -90 9 -8 1 -22 0 -30 -2 -9 -3 -14 2 -14 14 2 22 -8 22
-23 -2z m127 -61 c0 -14 -33 -16 -57 -5 -34 15 -28 21 17 17 22 -2 40 -8 40
-12z m-90 -158 c0 -14 -23 -32 -42 -32 -21 0 -23 11 -6 28 13 13 48 16 48 4z"/>
<path d="M8684 6305 c-3 -8 -14 -15 -24 -15 -10 0 -21 -7 -24 -16 -8 -22 1
-31 16 -16 15 15 31 16 22 0 -5 -8 2 -9 24 -5 19 4 32 2 32 -3 0 -6 -4 -10
-10 -10 -5 0 -10 -5 -10 -11 0 -8 4 -8 15 1 8 6 19 9 25 5 15 -9 12 13 -6 41
-23 35 -53 49 -60 29z"/>
<path d="M2788 6298 c9 -9 15 -9 24 0 9 9 7 12 -12 12 -19 0 -21 -3 -12 -12z"/>
<path d="M790 6253 l-185 -24 -84 20 c-47 11 -87 19 -89 17 -7 -7 56 -36 77
-36 25 0 37 -18 17 -26 -9 -3 -16 -10 -16 -15 0 -13 58 -11 62 2 2 6 44 15 93
20 133 12 327 38 332 43 6 6 -6 26 -15 25 -4 -1 -90 -13 -192 -26z"/>
<path d="M8866 6234 c-27 -26 -20 -89 13 -126 l28 -32 18 35 18 34 18 -40 c18
-42 25 -28 10 21 -5 16 -14 48 -21 71 -9 28 -20 43 -34 47 -30 8 -33 8 -50
-10z"/>
<path d="M2020 6200 c-9 -6 -10 -10 -3 -10 6 0 15 5 18 10 8 12 4 12 -15 0z"/>
<path d="M2182 6169 c-15 -59 -43 -94 -95 -119 -46 -22 -117 -27 -117 -8 0 7
23 36 52 65 29 29 48 53 43 52 -6 0 -35 -29 -65 -63 -54 -62 -56 -63 -100 -59
-34 4 -41 2 -30 -6 13 -10 13 -13 -1 -24 -25 -19 -13 -38 18 -26 33 12 42 3
17 -17 -18 -14 -17 -15 13 -9 26 5 34 2 43 -15 6 -12 16 -18 23 -14 7 4 4 -2
-7 -14 -15 -17 -17 -30 -11 -73 6 -41 9 -49 17 -35 5 9 7 24 4 31 -3 8 -1 17
3 20 5 3 8 27 7 54 -2 44 1 52 26 71 l28 21 1 -23 c0 -19 2 -18 12 9 14 38 24
48 56 58 23 7 23 6 -10 -56 -116 -223 -158 -288 -218 -336 -28 -22 -38 -27
-25 -12 41 47 36 51 -12 12 -87 -70 -135 -115 -279 -259 -181 -182 -214 -205
-283 -202 -31 2 -51 -1 -49 -7 1 -5 7 -11 12 -11 6 -1 14 -2 18 -3 4 0 -5 -12
-20 -25 -26 -23 -26 -25 -5 -19 12 3 22 1 22 -4 0 -24 -92 -73 -135 -73 -14 0
-25 -4 -25 -10 0 -5 6 -10 13 -10 8 0 7 -4 -3 -10 -12 -8 -12 -10 5 -11 19 0
18 -1 -2 -11 -13 -6 -23 -14 -23 -19 0 -23 139 54 140 77 0 7 10 14 23 18 12
3 40 21 62 41 58 51 73 47 31 -8 -13 -18 -40 -64 -60 -104 -19 -39 -40 -74
-46 -78 -5 -3 -10 -17 -10 -31 0 -13 -9 -29 -20 -36 -11 -7 -20 -17 -20 -23 0
-6 -9 -27 -20 -48 -11 -20 -20 -46 -20 -57 0 -25 37 -42 64 -28 16 9 18 18 13
68 -3 37 0 66 8 81 7 13 33 65 59 114 53 105 195 317 215 323 12 4 13 -6 8
-55 -4 -33 -9 -67 -13 -76 -4 -12 -1 -17 14 -17 19 0 39 41 28 58 -2 4 -7 30
-10 59 -4 45 -2 55 22 85 34 43 244 248 255 248 4 0 7 -7 7 -16 0 -34 37 -6
85 65 63 93 79 101 71 35 l-6 -49 21 58 c14 39 18 62 11 69 -13 13 6 62 30 77
11 7 18 7 18 1 0 -5 7 -10 15 -10 17 0 20 31 5 46 -7 7 1 35 27 90 43 90 52
81 34 -31 -15 -90 -1 -157 40 -196 16 -15 30 -24 33 -22 2 2 18 5 35 5 l32 1
-23 24 c-12 13 -27 22 -34 19 -7 -3 -19 3 -27 12 -12 14 -15 45 -14 163 1 94
6 151 14 160 8 9 9 32 4 69 l-7 55 -12 -46z m-19 -104 c-3 -9 -8 -14 -10 -11
-3 3 -2 9 2 15 9 16 15 13 8 -4z"/>
<path d="M8710 6199 c0 -6 -9 -8 -20 -4 -15 5 -20 2 -20 -13 0 -22 53 -72 76
-72 9 0 13 -4 10 -9 -3 -5 0 -14 8 -20 7 -6 11 -22 9 -35 -6 -27 15 -45 28
-25 13 20 11 67 -5 128 -18 64 -19 66 -45 51 -14 -7 -21 -7 -21 0 0 5 -4 10
-10 10 -5 0 -10 -5 -10 -11z"/>
<path d="M7262 6131 c-51 -19 -100 -64 -118 -108 -21 -50 -18 -135 6 -166 11
-14 20 -27 20 -30 0 -3 -19 -8 -42 -12 -134 -22 -236 -119 -272 -258 -31 -119
12 -215 120 -268 53 -26 72 -31 113 -27 100 10 224 95 265 183 35 73 29 169
-11 182 -9 3 -8 -6 3 -33 27 -65 3 -141 -69 -213 -79 -80 -170 -108 -252 -76
-70 26 -99 71 -103 161 -4 65 -1 81 26 137 54 116 152 187 259 187 l57 0 -26
28 c-33 34 -48 72 -48 120 1 84 79 182 145 182 86 0 100 -129 18 -161 -32 -12
-29 -31 4 -27 58 7 95 116 57 173 -15 23 -63 46 -93 44 -9 -1 -35 -8 -59 -18z"/>
<path d="M1400 6055 c-36 -7 -100 -25 -144 -39 -43 -14 -86 -26 -95 -26 -9 0
-21 -4 -26 -8 -6 -5 -26 -15 -45 -22 -42 -16 -238 -129 -246 -141 -13 -21 28
-6 88 34 62 40 117 67 203 100 22 8 63 24 90 35 61 24 154 46 162 39 3 -3 -7
-21 -22 -41 -30 -39 -69 -135 -59 -145 9 -8 35 32 59 93 17 43 29 56 78 85 40
24 54 37 45 42 -7 5 -15 8 -18 8 -3 -1 -34 -7 -70 -14z"/>
<path d="M9022 5961 c2 -47 0 -67 -8 -64 -7 3 -13 -29 -18 -94 -3 -54 -8 -123
-11 -153 l-4 -55 9 45 c5 25 15 69 21 98 11 54 23 66 34 32 3 -11 12 -19 18
-17 7 1 10 -5 8 -13 -3 -8 -4 -47 -3 -87 2 -39 -2 -92 -8 -117 -10 -47 -5
-100 10 -91 4 2 5 17 2 32 -4 23 -2 26 8 16 7 -7 15 -37 18 -66 4 -48 1 -57
-22 -81 -15 -14 -34 -43 -43 -64 l-16 -37 -20 115 c-11 63 -20 142 -20 175 1
35 -2 50 -6 36 -6 -22 -7 -21 -24 14 -24 50 -34 37 -13 -16 14 -34 14 -40 3
-30 -11 9 -9 -7 8 -66 40 -138 47 -176 55 -306 8 -115 7 -132 -9 -158 l-18
-30 -12 28 c-6 15 -21 39 -32 53 l-21 25 5 -27 c2 -16 2 -28 0 -28 -3 0 -30
23 -61 51 -32 28 -78 62 -104 77 -32 18 -48 34 -48 47 -1 11 -15 29 -33 40
-30 19 -35 20 -70 6 -31 -11 -36 -17 -31 -35 10 -34 23 -44 65 -51 22 -4 45
-13 53 -20 7 -8 30 -17 50 -21 40 -7 187 -111 212 -150 13 -19 12 -28 -9 -84
l-23 -63 -23 37 c-13 20 -26 35 -29 32 -3 -3 8 -24 24 -47 25 -36 30 -54 33
-121 4 -87 -5 -97 -39 -45 l-22 32 26 -30 c14 -16 26 -25 26 -19 0 7 -19 31
-42 54 -44 44 -98 77 -98 61 0 -6 40 -53 90 -106 116 -124 140 -173 146 -309
3 -56 1 -162 -4 -236 -9 -132 -14 -152 -58 -233 -11 -20 -13 -32 -5 -40 12
-16 -22 -132 -65 -222 l-29 -60 -3 74 c-2 53 1 78 11 90 20 22 71 125 59 117
-22 -14 -22 2 -1 240 12 130 11 144 -4 168 -10 14 -13 26 -7 26 5 0 10 -5 10
-11 0 -5 5 -7 11 -4 5 4 8 19 5 33 -2 15 -10 57 -16 94 -10 54 -20 78 -56 123
-45 59 -142 155 -156 155 -4 0 -8 6 -8 13 0 17 -59 86 -60 69 0 -7 11 -34 25
-60 33 -64 54 -152 58 -244 2 -59 7 -82 22 -98 16 -18 20 -40 23 -131 3 -61 8
-106 13 -103 5 3 12 -2 16 -11 3 -10 0 -20 -6 -25 -10 -5 -6 -27 14 -91 18
-54 29 -116 32 -174 5 -90 5 -91 -29 -145 -19 -30 -43 -77 -53 -105 -10 -27
-25 -59 -32 -70 -7 -11 -13 -24 -13 -29 0 -23 32 25 79 119 36 70 49 90 45 65
-4 -19 -15 -54 -25 -77 -10 -24 -14 -43 -8 -43 5 0 9 5 9 10 0 6 5 10 10 10
27 0 -13 -91 -118 -270 -31 -52 -66 -115 -79 -140 -12 -25 -45 -72 -73 -105
-44 -52 -61 -85 -45 -85 9 0 69 70 100 119 17 25 59 74 94 109 35 35 61 66 58
68 -3 3 -25 -16 -48 -41 -24 -26 -45 -42 -47 -36 -2 6 37 78 87 160 50 81 91
151 91 154 0 3 27 61 60 129 36 74 74 172 95 246 27 98 46 142 88 210 30 48
67 108 81 134 15 26 43 60 63 75 19 15 93 87 164 159 94 96 145 140 187 160
31 16 57 34 57 41 0 6 4 15 9 20 5 5 6 3 2 -4 -9 -17 -8 -17 76 11 87 28 154
59 188 87 l25 20 -45 -5 c-230 -24 -330 -37 -358 -45 -37 -11 -123 -64 -143
-87 -8 -10 -22 -12 -44 -8 -25 4 -41 -1 -76 -24 -67 -46 -85 -70 -130 -173
-48 -110 -53 -118 -44 -64 34 213 103 429 157 496 32 39 158 124 258 176 60
31 129 75 153 98 24 23 60 54 80 69 20 16 37 32 37 36 0 10 -46 29 -88 36 -45
7 -152 -33 -209 -78 -21 -16 -51 -36 -68 -43 -19 -8 -42 -33 -65 -71 -19 -33
-47 -71 -61 -86 -15 -15 -30 -39 -33 -54 -8 -32 -56 -117 -63 -110 -10 9 21
93 48 133 42 61 119 246 135 327 11 55 25 83 69 145 30 42 64 95 75 119 22 48
37 142 23 142 -15 0 -79 -72 -106 -120 -14 -25 -32 -81 -41 -124 -16 -80 -26
-106 -26 -70 0 52 -32 310 -39 317 -4 4 -16 -19 -25 -53 -16 -56 -16 -64 0
-123 40 -153 45 -188 33 -247 -19 -86 -39 -146 -78 -233 -26 -60 -50 -89 -37
-46 4 13 11 73 15 134 5 65 13 111 20 113 6 2 11 11 10 20 0 11 -2 12 -6 5 -9
-24 -21 -13 -28 25 -12 63 -32 102 -54 102 -11 0 -23 -4 -26 -10 -12 -20 -25
-10 -25 19 0 19 8 35 22 45 l22 16 -28 29 c-21 22 -26 33 -18 47 5 11 6 57 1
109 -7 84 -5 92 17 131 26 44 33 97 11 89 -6 -3 -25 -28 -40 -56 -25 -43 -31
-48 -44 -37 -13 10 -14 28 -9 105 5 60 3 99 -4 113 -21 40 -32 22 -28 -49z
m295 -358 c-3 -10 -5 -2 -5 17 0 19 2 27 5 18 2 -10 2 -26 0 -35z m-208 -285
c2 42 18 22 30 -35 6 -32 20 -73 31 -91 22 -35 26 -62 10 -62 -5 0 -10 5 -10
10 0 6 -8 10 -19 10 -14 0 -20 10 -26 43 -4 23 -10 35 -12 27 -11 -29 -76
-130 -84 -130 -5 0 -9 24 -9 54 0 52 11 86 55 166 l19 35 7 -25 c7 -24 7 -24
8 -2z m78 -288 c-2 -40 -12 -80 -26 -105 -11 -22 -21 -49 -21 -60 -1 -17 -2
-18 -10 -4 -15 26 0 238 18 256 14 14 17 13 30 -3 10 -14 12 -38 9 -84z m-80
-394 c-8 -23 -18 -67 -21 -99 -4 -32 -15 -75 -25 -95 l-19 -37 -7 36 c-11 60
13 159 71 294 16 37 17 -55 1 -99z m119 -271 c-15 -24 -30 -46 -35 -49 -4 -3
-41 -62 -82 -131 -41 -69 -77 -125 -80 -125 -9 0 16 126 37 195 11 34 31 67
53 89 40 38 124 86 129 74 2 -5 -8 -28 -22 -53z m-337 21 c24 -39 28 -71 7
-63 -7 3 -18 1 -24 -5 -13 -13 -32 28 -32 66 0 46 21 47 49 2z m-64 -80 c-9
-49 -9 -80 1 -164 4 -40 3 -67 -4 -74 -12 -12 -18 17 -26 134 -3 46 -2 79 4
83 6 3 10 22 10 41 0 23 4 33 11 28 7 -4 9 -21 4 -48z"/>
<path d="M8675 5970 c-3 -5 -3 -15 0 -20 4 -6 8 -24 10 -41 6 -41 19 -56 76
-84 36 -19 56 -38 82 -82 19 -32 38 -73 42 -90 3 -18 11 -33 17 -33 6 0 8 6 5
13 -2 6 -21 64 -41 127 -36 112 -62 167 -73 156 -3 -3 -1 -19 5 -35 6 -17 9
-31 7 -31 -2 0 -26 29 -54 65 -51 65 -64 74 -76 55z"/>
<path d="M8906 5955 c-3 -8 -12 -12 -19 -9 -11 4 -13 -2 -9 -23 7 -38 40 -83
56 -77 18 7 29 80 16 104 -13 24 -36 26 -44 5z"/>
<path d="M1774 5894 c-18 -14 -18 -14 6 -3 31 14 36 19 24 19 -6 0 -19 -7 -30
-16z"/>
<path d="M5900 5895 c-15 -18 -6 -61 15 -69 36 -13 72 31 53 67 -11 21 -51 22
-68 2z"/>
<path d="M7524 5879 c-4 -7 3 -20 17 -29 20 -16 22 -21 11 -44 -17 -38 -94
-83 -192 -112 -121 -36 -177 -63 -211 -101 -32 -37 -38 -78 -14 -109 16 -21
18 -16 15 34 -1 21 5 42 17 54 27 30 113 68 140 62 13 -4 23 -2 23 3 0 5 9 9
21 10 11 1 49 11 84 23 119 40 184 129 141 195 -17 26 -40 33 -52 14z"/>
<path d="M1510 5820 c-11 -7 -7 -10 18 -10 17 0 32 5 32 10 0 13 -30 13 -50 0z"/>
<path d="M8891 5754 c0 -11 3 -14 6 -6 3 7 2 16 -1 19 -3 4 -6 -2 -5 -13z"/>
<path d="M8590 5731 c-32 -62 21 -93 155 -90 89 2 103 15 44 39 -16 7 -46 26
-66 41 -45 36 -116 41 -133 10z m124 -17 c9 -3 16 -9 16 -13 0 -10 -59 -1 -66
10 -6 10 26 12 50 3z"/>
<path d="M8902 5720 c0 -8 4 -26 8 -40 6 -20 8 -21 8 -5 0 11 -3 29 -8 40 -5
12 -8 14 -8 5z"/>
<path d="M8840 5640 c0 -5 5 -10 11 -10 5 0 7 5 4 10 -3 6 -8 10 -11 10 -2 0
-4 -4 -4 -10z"/>
<path d="M1779 5636 c-3 -3 -25 -6 -49 -7 -45 -1 -150 -43 -150 -59 0 -9 80
13 113 31 21 12 22 6 0 -29 l-17 -27 23 22 c12 13 40 32 61 43 38 20 49 30 32
30 -5 0 -11 -2 -13 -4z"/>
<path d="M1525 5561 c-3 -5 -1 -12 5 -16 5 -3 10 1 10 9 0 18 -6 21 -15 7z"/>
<path d="M1961 5520 c-6 -27 -16 -73 -22 -100 -6 -28 -15 -53 -20 -56 -5 -3
-9 -26 -9 -52 0 -58 12 -44 39 48 17 57 36 210 26 210 -1 0 -8 -22 -14 -50z"/>
<path d="M2490 5524 c0 -3 21 -47 48 -98 l47 -91 0 -102 c0 -76 3 -103 12
-103 9 0 13 -16 13 -48 0 -27 6 -57 15 -68 8 -10 15 -29 15 -41 0 -35 28 -17
41 26 8 29 8 52 -2 97 -18 84 -18 96 -3 83 9 -7 19 -6 34 3 20 12 25 10 53
-23 36 -40 87 -76 87 -61 0 5 -7 15 -15 22 -8 7 -12 16 -9 21 2 5 -10 22 -28
39 -18 17 -25 27 -15 24 33 -12 17 17 -18 32 -24 10 -35 20 -33 32 2 11 -3 17
-14 16 -10 -1 -16 3 -15 9 3 15 -62 57 -79 50 -19 -7 -33 11 -84 110 -37 70
-50 88 -50 71z"/>
<path d="M1752 5402 c-37 -31 -42 -52 -12 -52 12 0 28 13 40 33 34 55 24 62
-28 19z"/>
<path d="M8680 5372 c0 -11 7 -25 15 -32 8 -7 15 -20 15 -30 0 -21 23 -41 73
-64 21 -10 41 -25 44 -34 7 -19 74 -122 79 -122 8 0 -68 146 -82 157 -8 6 -15
14 -15 17 3 25 -1 36 -12 36 -8 0 -22 9 -32 20 -10 11 -24 20 -32 20 -7 0 -13
7 -13 15 0 8 -9 19 -20 25 -17 9 -20 8 -20 -8z"/>
<path d="M8732 5374 c1 -9 9 -19 16 -22 9 -3 13 2 10 14 -1 9 -9 19 -16 22 -9
3 -13 -2 -10 -14z"/>
<path d="M2085 5330 c-24 -71 -33 -345 -11 -337 10 4 17 -12 26 -56 6 -34 19
-86 27 -116 15 -57 12 -71 -12 -51 -15 13 -16 12 -19 -29 -3 -44 -16 -30 -16
17 0 30 -5 52 -11 52 -6 0 -9 -31 -8 -87 3 -108 -10 -152 -54 -177 -17 -11
-42 -28 -54 -39 -13 -11 -23 -15 -23 -9 0 31 -80 -2 -134 -54 -33 -32 -51 -74
-25 -59 5 4 18 0 27 -9 16 -14 21 -12 61 19 68 54 77 46 37 -33 -29 -55 -123
-155 -168 -178 -24 -12 -28 -18 -17 -25 11 -7 8 -15 -17 -37 -35 -30 -47 -71
-32 -113 12 -34 -1 -60 -50 -106 -41 -39 -30 -44 19 -8 81 60 179 185 179 229
0 9 4 16 9 16 5 0 13 10 17 23 4 12 17 36 30 53 13 17 24 38 24 48 0 9 14 44
30 76 17 33 32 75 34 92 4 34 63 98 91 98 19 0 10 -49 -21 -112 -13 -26 -24
-60 -23 -75 0 -27 1 -26 19 12 10 22 19 49 20 60 1 25 29 76 30 55 0 -12 4
-11 15 4 13 17 14 17 20 -10 3 -16 10 -42 15 -59 5 -16 5 -61 1 -100 -6 -51
-4 -76 7 -97 14 -30 27 -36 35 -15 4 10 6 10 6 0 2 -27 17 -11 19 20 1 17 5
44 8 60 4 18 1 29 -8 32 -19 8 -17 69 2 73 20 3 44 -55 59 -141 7 -38 29 -117
51 -177 30 -86 38 -120 34 -157 -2 -27 -7 -86 -10 -133 -4 -47 -10 -92 -14
-100 -5 -9 -4 -24 2 -34 10 -17 11 -17 27 1 14 15 16 38 14 148 -2 114 -1 127
11 105 7 -14 16 -41 20 -60 7 -40 65 -187 87 -222 21 -32 45 -96 53 -139 3
-20 15 -44 26 -54 11 -10 20 -24 20 -30 0 -21 41 -65 61 -65 24 0 25 20 1 27
-10 2 -23 13 -30 23 -10 16 -8 22 13 39 33 25 23 52 -40 110 -25 23 -55 62
-65 86 -10 23 -30 61 -44 83 -14 22 -28 53 -32 68 l-7 28 31 -35 c26 -28 33
-31 41 -19 6 8 14 11 18 6 4 -5 2 -11 -4 -13 -22 -8 -15 -20 29 -52 32 -24 44
-28 52 -18 6 7 10 11 9 8 -1 -2 4 -10 12 -18 11 -11 19 -11 35 -3 41 22 16 58
-47 66 -37 5 -72 24 -43 24 17 0 -15 24 -73 55 -23 11 -49 36 -60 55 -10 19
-28 44 -38 56 -11 11 -16 24 -12 27 10 11 43 8 43 -3 0 -5 12 -12 28 -16 15
-3 46 -17 70 -31 31 -17 54 -23 85 -21 37 3 42 6 45 29 2 19 -5 33 -24 48 -25
20 -38 22 -136 19 -66 -2 -111 1 -118 8 -18 18 -80 213 -105 331 -13 61 -31
141 -40 178 -9 36 -15 69 -12 71 5 5 67 -79 67 -90 0 -3 15 -27 34 -53 36 -52
74 -123 102 -190 19 -48 37 -67 76 -82 26 -10 27 -9 18 15 -15 37 -12 46 10
39 48 -15 -5 54 -80 105 -37 25 -75 63 -105 106 -49 71 -52 90 -7 57 15 -11
46 -30 68 -41 22 -11 62 -39 89 -61 27 -23 56 -41 64 -41 8 0 23 -8 33 -17 10
-9 34 -22 52 -28 29 -10 36 -9 49 6 9 10 12 19 6 21 -5 2 -10 16 -11 31 -2 26
-26 50 -45 46 -4 -1 -15 0 -23 3 -8 3 -44 15 -80 26 -36 12 -74 22 -84 22 -23
0 -142 63 -174 93 -52 47 -74 114 -87 262 -7 72 -15 84 -16 24 l-1 -44 -18 55
c-21 60 -25 110 -11 110 5 0 15 -16 21 -36 8 -23 15 -32 20 -24 5 8 21 -1 52
-31 25 -24 51 -53 59 -64 30 -43 129 -94 129 -66 0 12 -96 100 -163 151 -55
41 -87 83 -87 112 0 8 3 9 8 3 4 -6 25 -19 47 -28 22 -10 60 -36 85 -58 47
-41 63 -49 54 -24 -4 8 -2 15 4 15 13 0 33 -26 30 -38 -4 -13 82 -91 101 -92
7 0 -2 17 -23 40 -19 22 -42 47 -51 57 -101 116 -139 162 -153 183 -9 14 -24
33 -34 43 -14 14 -16 22 -8 37 11 21 -2 60 -20 60 -18 0 -33 45 -31 92 1 28
-3 48 -9 48 -6 0 -10 -6 -9 -12 4 -37 -4 -66 -26 -93 -21 -26 -23 -27 -18 -7
3 12 10 22 15 22 6 0 7 7 2 18 -4 9 -12 51 -19 92 l-11 75 -19 -55z m52 -352
c-2 -13 -4 -3 -4 22 0 25 2 35 4 23 2 -13 2 -33 0 -45z m-4 -448 c-3 -11 -9
-17 -15 -14 -5 3 -4 12 3 20 16 19 18 18 12 -6z m432 -182 c7 -8 5 -9 -10 -3
-11 4 -28 8 -37 9 -10 1 -21 6 -25 11 -5 4 8 5 27 1 19 -3 39 -11 45 -18z
m-100 -178 c10 -11 14 -20 9 -20 -5 0 -15 9 -22 20 -7 11 -11 20 -9 20 2 0 12
-9 22 -20z m95 -470 c8 -5 12 -11 9 -14 -3 -3 -14 1 -25 9 -21 16 -8 20 16 5z"/>
<path d="M1675 5332 c-3 -3 -5 -20 -5 -38 0 -18 -9 -60 -19 -93 -10 -34 -17
-61 -15 -61 3 0 -4 -10 -16 -22 -11 -12 -20 -25 -20 -30 0 -16 19 -7 39 18 11
14 25 23 31 19 6 -4 9 6 8 27 -2 20 1 32 8 31 10 -2 64 84 64 100 0 3 -11 5
-24 4 -14 -1 -24 3 -23 8 1 6 14 10 30 10 15 0 27 2 27 5 0 8 -78 28 -85 22z
m35 -112 c0 -5 -5 -10 -11 -10 -5 0 -7 5 -4 10 3 6 8 10 11 10 2 0 4 -4 4 -10z"/>
<path d="M1865 5280 c-17 -19 -17 -22 -3 -36 14 -14 16 -13 20 20 2 20 3 36 3
36 -1 0 -10 -9 -20 -20z"/>
<path d="M8534 5285 c3 -21 16 -31 16 -12 0 9 -4 18 -9 21 -5 4 -8 -1 -7 -9z"/>
<path d="M2387 5263 c-4 -3 -7 -11 -7 -17 0 -6 5 -5 12 2 6 6 9 14 7 17 -3 3
-9 2 -12 -2z"/>
<path d="M2820 5190 c0 -5 5 -10 11 -10 5 0 7 5 4 10 -3 6 -8 10 -11 10 -2 0
-4 -4 -4 -10z"/>
<path d="M1198 5183 c7 -3 16 -2 19 1 4 3 -2 6 -13 5 -11 0 -14 -3 -6 -6z"/>
<path d="M9262 5150 c0 -14 2 -19 5 -12 2 6 2 18 0 25 -3 6 -5 1 -5 -13z"/>
<path d="M986 5141 c-10 -11 -24 -17 -32 -14 -8 3 -14 1 -14 -5 0 -10 25 -11
35 0 3 3 26 3 50 0 30 -3 45 -1 45 7 0 6 -13 11 -29 11 -16 0 -31 5 -33 11 -2
6 -12 2 -22 -10z"/>
<path d="M1977 5057 c-20 -83 -20 -90 -8 -82 12 7 31 -26 31 -53 0 -10 -11
-25 -25 -32 -14 -8 -28 -24 -31 -37 -10 -36 -23 -27 -27 20 l-3 42 -8 -32 c-5
-18 -15 -33 -22 -33 -18 0 -62 -87 -70 -140 l-7 -42 24 15 c13 8 39 18 57 22
l32 7 0 -55 c0 -69 11 -147 20 -147 4 0 10 55 12 123 6 132 17 176 48 184 16
4 20 14 20 52 0 25 2 76 3 113 2 37 -1 69 -6 71 -4 1 -9 17 -9 35 -2 56 -14
44 -31 -31z"/>
<path d="M1113 5084 c-15 -16 -16 -24 -4 -24 8 0 24 30 19 35 -2 2 -9 -3 -15
-11z"/>
<path d="M8613 4977 c-29 -6 -53 -14 -53 -18 0 -5 3 -8 8 -7 4 1 17 -4 30 -11
20 -11 26 -10 41 8 23 27 33 26 50 -1 13 -22 13 -22 -4 -8 -17 14 -18 13 -13
-7 3 -12 2 -23 -2 -25 -5 -2 23 -29 61 -61 38 -32 69 -54 69 -49 0 5 -7 15
-16 23 -10 8 -14 22 -10 40 5 27 -14 56 -28 42 -4 -4 -4 -1 -1 8 4 10 -8 25
-37 45 -40 28 -46 29 -95 21z"/>
<path d="M4325 4935 c-95 -20 -214 -81 -310 -160 -52 -42 -85 -63 -95 -58 -69
30 -162 44 -270 41 -104 -3 -121 -6 -180 -34 -36 -17 -80 -44 -99 -59 -94 -80
-94 -240 0 -319 48 -41 102 -63 208 -83 l92 -18 -8 -40 c-16 -81 -7 -178 22
-239 65 -137 207 -172 370 -92 81 40 200 137 264 217 25 30 48 58 53 63 4 5
-8 -33 -26 -85 -56 -154 -107 -283 -115 -292 -4 -4 -54 -12 -112 -17 -125 -11
-189 -29 -289 -81 -136 -70 -206 -164 -197 -262 11 -121 162 -163 321 -89 117
55 271 227 334 375 6 15 16 27 21 27 5 0 31 -15 57 -32 64 -44 94 -89 94 -144
0 -24 5 -44 10 -44 13 0 13 55 0 102 -12 43 -90 116 -132 125 -15 3 -28 7 -28
8 0 1 11 33 25 71 14 38 50 147 80 243 37 119 63 185 83 210 44 56 74 110 67
121 -21 34 -80 -17 -145 -125 -53 -88 -167 -219 -247 -286 -131 -108 -281
-142 -362 -82 -48 37 -63 68 -69 141 -5 77 14 202 32 206 6 2 54 11 106 21
175 32 284 71 424 154 102 60 243 197 279 270 31 63 36 135 12 180 -32 62
-149 90 -270 66z m200 -39 c37 -16 65 -60 65 -104 0 -105 -176 -294 -362 -388
-131 -66 -327 -124 -419 -124 l-29 0 21 53 c31 80 103 206 154 270 l45 57 50
-25 c69 -35 86 -31 23 5 -29 17 -53 35 -53 40 0 5 32 36 71 69 73 61 182 125
254 147 54 17 138 17 180 0z m-689 -177 c92 -17 92 -18 39 -84 -78 -95 -143
-205 -170 -286 l-26 -76 -57 9 c-88 13 -180 47 -217 79 -128 113 -55 301 135
351 75 20 210 23 296 7z m700 -367 c-8 -16 -22 -35 -32 -43 -16 -13 -16 -12
-4 11 13 25 40 60 47 60 2 0 -3 -13 -11 -28z m-336 -644 c-24 -60 -129 -204
-194 -267 -84 -80 -178 -126 -242 -117 -73 10 -114 50 -114 112 0 42 41 113
89 155 50 44 180 111 251 129 41 11 210 29 219 23 2 -1 -2 -17 -9 -35z"/>
<path d="M1676 4858 c-14 -24 -37 -76 -51 -116 -24 -68 -25 -75 -11 -91 9 -10
16 -23 16 -29 0 -7 5 -12 10 -12 23 0 8 -15 -17 -17 -15 0 -32 -8 -39 -17 -6
-9 -16 -16 -23 -16 -6 0 -14 -7 -18 -15 -6 -18 -78 -57 -87 -48 -6 6 -9 -13
-3 -20 1 -2 -4 -11 -12 -20 -12 -15 -11 -17 8 -17 51 0 211 101 211 134 0 13
55 36 88 36 17 0 22 6 22 25 0 14 -4 25 -10 25 -5 0 -7 6 -4 14 3 8 -4 49 -16
91 -12 42 -22 89 -22 106 -1 40 -13 36 -42 -13z"/>
<path d="M1109 4769 c-11 -22 -4 -89 10 -89 6 0 10 110 4 110 -1 0 -7 -9 -14
-21z"/>
<path d="M5722 4765 c-41 -18 -123 -103 -174 -180 -60 -92 -145 -265 -193
-392 -47 -122 -108 -216 -190 -292 -102 -94 -107 -18 -14 200 23 54 39 105 36
113 -4 9 -17 16 -31 16 -19 0 -30 -11 -53 -57 -43 -85 -80 -141 -132 -203 -25
-30 -53 -63 -61 -73 -19 -23 -65 -48 -74 -40 -21 21 0 112 54 233 52 116 57
136 31 143 -30 7 -47 -10 -86 -91 -63 -130 -170 -272 -205 -272 -30 0 -17 67
45 218 48 120 52 138 33 145 -42 14 -72 -30 -127 -186 -38 -110 -40 -159 -6
-192 13 -14 32 -25 41 -25 17 0 101 80 141 135 l22 30 -10 -39 c-19 -70 10
-126 65 -126 36 0 75 33 148 123 l47 58 -5 -63 c-7 -83 8 -112 59 -116 33 -3
43 3 98 54 33 32 78 85 101 119 23 33 38 51 34 40 -4 -11 -10 -43 -13 -72 -20
-184 116 -194 272 -20 l55 62 -6 -37 c-15 -90 19 -148 87 -148 50 0 105 36
176 114 l51 55 -2 -52 c-3 -138 105 -145 186 -12 l18 30 0 -46 c0 -88 62 -119
132 -66 32 25 120 127 147 172 l13 20 -7 -20 c-24 -75 -27 -111 -12 -148 14
-31 21 -37 47 -37 44 0 74 23 120 92 l40 60 -2 -59 c-2 -78 12 -103 59 -103
48 0 90 33 160 126 30 41 57 74 59 74 1 0 -12 -40 -29 -90 -34 -96 -31 -119
15 -106 17 4 35 31 70 104 75 154 150 262 185 262 24 0 10 -61 -43 -192 -48
-119 -53 -161 -18 -166 25 -4 38 15 83 118 41 95 103 187 149 223 34 27 37 27
40 9 2 -11 -15 -64 -38 -118 -69 -165 -64 -244 15 -244 42 0 89 39 152 124
l43 58 0 -47 c0 -165 149 -182 287 -32 40 44 133 170 133 181 0 19 -22 -1 -54
-50 -80 -120 -178 -204 -238 -204 -45 0 -58 15 -58 66 0 54 15 93 37 100 10 4
42 17 71 31 94 44 133 141 69 171 -58 28 -134 -20 -209 -132 -60 -88 -141
-188 -178 -219 -63 -53 -66 -5 -10 138 51 132 58 173 33 204 -31 38 -71 22
-141 -54 l-59 -64 5 53 c3 41 0 56 -13 70 -37 36 -98 -3 -166 -108 -45 -68
-48 -65 -17 20 23 65 20 94 -10 94 -25 0 -34 -12 -61 -80 -41 -105 -220 -314
-252 -294 -25 15 0 118 62 255 48 106 49 119 9 119 -27 0 -33 -7 -64 -67 -73
-144 -165 -278 -199 -289 -25 -8 -37 12 -30 51 5 27 55 160 97 256 17 41 14
49 -23 49 -21 0 -31 -10 -56 -58 -75 -143 -212 -312 -255 -312 -40 0 -24 85
46 247 24 56 44 107 44 112 0 6 -15 11 -33 11 -27 0 -36 -6 -47 -27 l-12 -28
-9 23 c-5 12 -21 27 -36 33 -62 23 -150 -35 -211 -140 -61 -107 -191 -231
-241 -231 -56 0 -63 38 -31 164 19 76 22 80 121 184 184 194 324 420 317 514
-3 41 -5 43 -37 46 -50 5 -86 -14 -143 -77 -100 -109 -203 -295 -283 -514 -39
-105 -55 -135 -104 -193 -128 -152 -221 -169 -208 -36 11 113 29 150 120 242
173 177 327 421 327 521 0 44 -3 51 -26 59 -14 6 -26 10 -27 10 -1 -1 -17 -7
-35 -15z m68 -55 c0 -73 -87 -227 -228 -401 -73 -90 -148 -163 -138 -134 54
151 155 353 233 462 39 55 103 113 125 113 5 0 8 -18 8 -40z m327 -6 c-6 -60
-61 -167 -142 -279 -66 -92 -214 -260 -222 -252 -6 6 57 158 108 260 83 165
201 317 247 317 11 0 13 -10 9 -46z m81 -506 c27 -27 12 -70 -69 -209 -76
-128 -136 -156 -127 -60 5 49 59 176 99 233 30 42 74 59 97 36z m1572 -22 c0
-22 -8 -41 -25 -58 -25 -25 -125 -84 -125 -73 0 17 45 91 77 125 45 51 73 53
73 6z"/>
<path d="M8401 4658 c-21 -55 -41 -126 -46 -159 -3 -19 -11 -44 -19 -54 -22
-30 -50 -10 -106 75 -53 79 -64 83 -29 10 11 -23 23 -54 25 -67 4 -21 2 -23
-16 -13 -11 6 -20 7 -20 2 0 -13 41 -48 79 -67 31 -15 33 -19 18 -29 -15 -11
-14 -15 3 -43 10 -17 30 -33 44 -37 14 -3 30 -14 35 -24 11 -21 49 -182 54
-232 3 -24 4 -17 5 20 1 31 -7 88 -18 128 -22 79 -23 128 -5 152 7 8 18 44 24
78 11 56 10 66 -4 82 -16 18 -16 21 6 59 12 23 26 41 31 41 4 0 8 6 8 14 0 9
-7 12 -20 9 -17 -5 -20 0 -20 30 0 43 -17 57 -29 25z m-28 -264 c9 -10 -22
-66 -33 -59 -5 3 -8 16 -6 28 3 12 5 25 5 30 1 9 25 9 34 1z"/>
<path d="M2550 4580 c-25 -34 0 -50 36 -22 15 12 16 14 2 9 -10 -3 -20 -2 -23
3 -3 5 3 10 12 12 16 3 16 4 2 10 -10 4 -21 -1 -29 -12z"/>
<path d="M1022 4550 c0 -19 2 -27 5 -17 2 9 2 25 0 35 -3 9 -5 1 -5 -18z"/>
<path d="M1277 4480 c-38 -22 -72 -40 -76 -40 -11 0 -75 -69 -70 -75 10 -9
114 26 127 43 6 9 12 12 12 7 0 -6 8 6 18 25 11 19 29 39 40 45 12 5 22 15 22
22 0 17 5 19 -73 -27z"/>
<path d="M5183 4368 c-41 -20 -24 -78 22 -78 42 0 59 44 29 74 -18 18 -21 19
-51 4z"/>
<path d="M1955 4332 c-6 -4 -11 -16 -13 -27 -3 -18 -2 -18 13 3 17 24 17 36 0
24z"/>
<path d="M1984 4285 c-4 -8 -9 -13 -14 -10 -4 2 -5 -7 -2 -21 5 -29 18 -21 27
19 7 28 -1 38 -11 12z"/>
<path d="M2067 4237 c-32 -62 -36 -110 -9 -105 12 2 19 16 23 48 4 25 10 60
14 78 11 46 2 40 -28 -21z"/>
<path d="M1883 4193 c-18 -6 -16 -23 1 -23 17 0 30 16 19 23 -5 2 -14 2 -20 0z"/>
<path d="M2213 4185 c-7 -8 -16 -39 -19 -69 -6 -47 -4 -56 9 -56 25 0 44 -35
39 -75 -4 -30 -8 -36 -23 -32 -10 3 -23 -1 -30 -9 -16 -20 -29 -17 -29 5 0 25
-20 38 -21 14 -1 -10 -3 -31 -5 -48 -5 -37 14 -111 32 -126 17 -14 19 -53 3
-43 -7 4 -10 1 -7 -7 3 -8 15 -13 27 -12 19 3 21 -2 21 -55 0 -61 7 -78 30
-84 13 -3 15 20 16 147 0 83 4 168 8 191 6 32 2 60 -19 129 -16 53 -25 100
-21 117 6 32 6 33 -11 13z m27 -400 c0 -18 -5 -25 -20 -25 -22 0 -26 20 -8 38
19 19 28 14 28 -13z"/>
<path d="M2110 4115 c-16 -19 1 -65 24 -65 16 0 32 53 21 70 -9 15 -31 12 -45
-5z"/>
<path d="M1426 3955 c-55 -52 -98 -96 -95 -98 2 -2 20 -7 39 -11 31 -6 32 -5
16 7 -23 17 -13 37 19 37 23 0 35 17 35 50 0 9 15 30 33 46 32 29 63 64 56 64
-2 0 -49 -43 -103 -95z"/>
<path d="M1861 3999 c-22 -49 -34 -105 -50 -219 -7 -53 -27 -103 -56 -138 -38
-46 -104 -140 -117 -167 -9 -16 -21 -55 -27 -85 -7 -30 -14 -65 -17 -77 -4
-13 -2 -23 3 -23 10 0 43 73 43 98 0 9 4 23 9 31 7 11 10 9 16 -8 4 -14 -1
-33 -14 -55 -29 -47 -26 -55 8 -22 40 38 57 81 41 101 -18 21 -5 45 25 45 32
0 50 38 66 142 16 104 20 110 35 53 8 -30 14 -103 14 -181 0 -133 8 -224 19
-224 12 0 39 87 44 140 3 42 -3 83 -30 180 -46 164 -43 223 24 443 12 39 -16
13 -36 -34z m-94 -381 c-3 -8 -6 -5 -6 6 -1 11 2 17 5 13 3 -3 4 -12 1 -19z
m114 -201 c2 -75 1 -87 -8 -87 -5 0 -9 46 -10 103 -1 70 1 93 7 74 5 -15 10
-56 11 -90z"/>
<path d="M1513 3993 c-37 -34 -53 -89 -28 -95 15 -3 14 -6 -4 -30 -26 -32 -26
-38 -2 -38 52 0 78 20 97 76 15 45 16 57 5 63 -8 5 -11 17 -6 30 10 31 -24 28
-62 -6z"/>
<path d="M8702 3983 c26 -59 38 -78 38 -62 0 19 -27 76 -41 84 -5 4 -4 -6 3
-22z"/>
<path d="M2030 3991 c0 -6 5 -13 10 -16 6 -3 10 1 10 9 0 9 -4 16 -10 16 -5 0
-10 -4 -10 -9z"/>
<path d="M9290 3978 c0 -13 4 -28 8 -33 14 -16 52 -139 52 -168 0 -15 -4 -27
-10 -27 -5 0 -10 9 -10 19 0 11 -11 32 -24 48 -13 15 -38 53 -55 83 -27 46
-32 50 -28 25 3 -16 8 -41 12 -55 5 -21 5 -22 -5 -7 -16 25 -33 21 -28 -7 4
-18 1 -23 -10 -18 -10 3 -13 0 -10 -9 3 -8 15 -13 27 -12 15 2 24 -5 31 -22 5
-14 26 -35 45 -46 40 -24 38 -41 -4 -33 -23 5 -35 -1 -66 -33 -21 -21 -42 -50
-47 -65 -9 -26 -91 -90 -256 -201 -31 -21 -58 -42 -60 -48 -7 -18 18 -9 50 19
18 16 73 55 122 88 48 32 100 67 115 77 18 13 37 16 64 12 47 -7 97 14 125 51
32 44 47 21 45 -69 -1 -69 1 -73 21 -73 13 1 25 -8 31 -22 14 -32 29 -22 36
24 3 21 7 33 9 27 8 -37 21 -63 31 -63 26 0 -23 118 -72 174 -22 25 -38 46
-35 46 3 0 29 -15 58 -34 80 -51 138 -78 154 -72 19 7 18 26 -1 26 -21 0 -31
30 -14 41 12 8 11 11 -3 20 -24 13 -23 25 2 32 21 5 28 27 9 27 -5 0 -8 4 -5
8 3 5 -23 10 -57 11 -34 1 -63 4 -66 6 -2 3 11 22 30 44 19 21 49 57 67 80
l33 41 -25 0 c-13 0 -31 -6 -38 -13 -18 -18 -75 -57 -82 -57 -10 0 -7 35 5 47
8 8 8 17 1 30 -10 17 -11 16 -20 -7 -23 -59 -51 -116 -66 -135 -15 -20 -15
-20 -16 1 0 11 11 43 25 70 14 27 28 65 30 84 3 19 8 48 11 65 l7 29 -36 -27
c-42 -32 -44 -32 -50 -9 -4 14 -6 14 -12 -5 -8 -26 -25 -21 -25 7 0 10 -4 22
-10 25 -6 3 -10 -4 -10 -17z m200 -193 c-7 -9 -15 -13 -18 -10 -3 2 1 11 8 20
7 9 15 13 18 10 3 -2 -1 -11 -8 -20z m-32 -22 c-2 -9 -11 -17 -21 -19 -18 -2
-18 -2 -1 17 21 23 26 24 22 2z"/>
<path d="M1961 3928 c-1 -52 2 -68 13 -68 7 0 16 -11 18 -25 3 -14 2 -25 -3
-25 -4 0 -10 10 -12 23 -2 12 -5 2 -5 -23 0 -45 36 -165 37 -123 1 25 18 39
44 35 16 -3 17 3 13 45 -5 58 -32 118 -68 156 -15 16 -29 38 -31 50 -2 12 -5
-8 -6 -45z"/>
<path d="M9486 3945 c-19 -14 -18 -15 12 -15 22 0 32 5 32 15 0 19 -19 19 -44
0z"/>
<path d="M8546 3808 c-13 -27 -3 -62 19 -67 15 -3 17 -1 8 10 -6 8 -13 28 -15
44 -3 23 -6 26 -12 13z"/>
<path d="M8430 3746 c0 -19 -4 -36 -9 -38 -11 -4 -20 -108 -9 -108 13 0 25 39
32 113 4 43 3 67 -4 67 -5 0 -10 -15 -10 -34z"/>
<path d="M2580 3726 c0 -2 7 -7 16 -10 8 -3 12 -2 9 4 -6 10 -25 14 -25 6z"/>
<path d="M2071 3659 c-1 -14 2 -29 6 -33 4 -4 8 -21 9 -38 1 -20 -1 -26 -7
-17 -4 7 -11 11 -14 7 -9 -8 17 -56 54 -98 l30 -35 -25 73 c-13 41 -24 81 -24
90 -1 10 -7 31 -15 47 l-13 30 -1 -26z"/>
<path d="M8143 3648 c-16 -20 -24 -68 -17 -91 7 -21 7 -21 17 3 15 38 25 100
17 100 -4 0 -12 -6 -17 -12z"/>
<path d="M8640 3550 c0 -8 5 -22 10 -30 9 -13 10 -13 10 0 0 8 -5 22 -10 30
-9 13 -10 13 -10 0z"/>
<path d="M8092 3529 c-9 -15 -10 -29 -2 -57 10 -39 29 -74 30 -57 0 6 6 1 13
-11 17 -29 54 -74 60 -74 3 0 19 -12 34 -26 56 -52 183 -103 183 -74 0 6 10
10 23 10 17 1 11 7 -25 25 -50 26 -68 45 -44 45 24 0 26 14 9 53 -14 31 -21
35 -41 30 -22 -5 -23 -4 -12 16 15 29 6 51 -19 51 -28 0 -35 -16 -17 -41 19
-27 11 -55 -10 -34 -8 7 -14 17 -14 22 0 4 -12 21 -26 37 -20 23 -30 27 -42
20 -12 -8 -22 -3 -42 20 -15 17 -31 39 -36 48 -9 16 -10 16 -22 -3z"/>
<path d="M8604 3498 c3 -15 11 -40 18 -55 l12 -28 4 28 c2 17 -4 37 -19 55
l-22 27 7 -27z"/>
<path d="M8722 3450 c-18 -29 -15 -38 4 -12 9 13 14 25 12 27 -2 2 -9 -5 -16
-15z"/>
<path d="M8423 3423 c-7 -2 -13 -13 -13 -24 0 -21 13 -18 55 15 20 15 19 15
-5 15 -14 0 -31 -3 -37 -6z"/>
<path d="M2656 3385 c8 -37 14 -45 14 -19 0 10 -5 26 -10 34 -8 11 -9 7 -4
-15z"/>
<path d="M8696 3402 c-10 -17 -26 -62 -21 -62 7 0 37 62 32 67 -3 2 -8 0 -11
-5z"/>
<path d="M9059 3386 c-16 -15 -93 -46 -114 -46 -8 0 -15 7 -15 15 0 8 -9 15
-19 15 -24 0 -181 -153 -181 -177 0 -13 7 -10 33 14 39 37 107 76 162 93 55
17 129 55 145 74 16 21 9 30 -11 12z m-239 -116 c0 -5 -5 -10 -11 -10 -5 0 -7
5 -4 10 3 6 8 10 11 10 2 0 4 -4 4 -10z"/>
<path d="M2450 3304 c0 -6 7 -19 15 -30 8 -10 14 -14 14 -9 0 6 -6 19 -14 29
-8 11 -15 15 -15 10z"/>
<path d="M2638 3303 c6 -2 12 -10 12 -16 0 -7 30 -59 66 -117 223 -357 563
-708 941 -973 44 -31 85 -57 90 -57 5 0 39 -20 76 -45 149 -100 459 -252 593
-291 30 -8 67 -22 84 -30 95 -48 612 -164 727 -164 12 0 27 -9 33 -20 6 -11
22 -23 35 -26 14 -3 23 -9 20 -14 -2 -4 7 -12 20 -18 22 -10 25 -9 25 9 0 19
4 21 32 15 122 -24 145 -48 41 -41 l-68 4 49 -12 c53 -14 84 -50 56 -67 -21
-13 53 -24 114 -16 29 3 89 19 133 35 45 16 84 27 86 24 10 -9 116 9 134 24
16 12 11 13 -44 8 -55 -6 -70 -3 -155 31 -51 20 -105 38 -120 39 -16 1 -40 2
-54 3 -14 1 -22 6 -19 12 4 6 -13 10 -42 11 -162 2 -400 29 -548 62 -323 72
-480 123 -739 243 -492 226 -852 501 -1232 939 -74 85 -180 231 -259 355 -48
74 -71 100 -90 99 -5 0 -4 -3 3 -6z m2677 -1723 c8 -13 -5 -13 -25 0 -13 8
-13 10 2 10 9 0 20 -4 23 -10z"/>
<path d="M9092 3244 c3 -21 8 -47 12 -56 7 -15 3 -16 -27 -11 -42 6 -50 -4
-51 -66 l-1 -45 -86 -22 c-102 -25 -296 -115 -262 -121 11 -2 56 14 100 36 79
39 227 91 264 91 14 0 19 -7 19 -25 0 -32 17 -32 51 1 l27 26 7 -46 c8 -53 26
-74 44 -52 10 11 9 24 0 55 -7 23 -9 44 -6 47 3 3 20 -4 36 -16 27 -19 32 -20
37 -5 4 9 -2 25 -12 36 -16 17 -16 22 -4 29 8 5 26 6 40 3 14 -3 22 -2 17 2
-4 5 0 17 10 27 18 21 3 25 -26 6 -10 -6 -27 -8 -37 -4 -18 7 -17 9 8 27 82
60 90 76 26 54 -21 -7 -40 -10 -43 -7 -17 17 -35 7 -44 -25 -9 -32 -35 -62
-53 -63 -15 0 -8 35 12 65 23 35 26 55 6 55 -7 0 -26 10 -41 22 l-27 21 4 -39z
m38 -158 c0 -8 -7 -16 -15 -20 -15 -5 -21 14 -8 27 11 12 23 8 23 -7z"/>
<path d="M8624 3254 c-4 -10 -9 -22 -11 -26 -2 -5 0 -8 5 -8 10 0 24 41 17 48
-3 3 -8 -4 -11 -14z"/>
<path d="M8534 3216 c-8 -20 4 -88 15 -82 8 6 7 84 -3 93 -3 3 -8 -2 -12 -11z"/>
<path d="M8233 3178 c-16 -43 -27 -197 -19 -242 12 -63 29 -42 22 27 -3 34 -1
80 5 102 30 113 30 118 16 132 -11 11 -15 8 -24 -19z"/>
<path d="M8427 3203 c-9 -14 -47 -122 -47 -132 0 -3 7 3 16 14 8 11 18 18 21
15 4 -3 11 13 15 35 10 47 7 86 -5 68z"/>
<path d="M2540 3150 c6 -11 13 -20 16 -20 2 0 0 9 -6 20 -6 11 -13 20 -16 20
-2 0 0 -9 6 -20z"/>
<path d="M8270 3153 c0 -5 5 -25 11 -42 9 -24 9 -38 0 -54 -8 -16 -8 -32 -1
-57 5 -19 10 -56 10 -81 0 -40 3 -48 23 -53 43 -11 49 -7 28 20 -17 22 -21 41
-21 108 1 51 6 90 15 106 8 14 14 30 14 35 0 6 -7 -3 -15 -18 -14 -26 -34 -29
-34 -4 -1 15 -30 55 -30 40z"/>
<path d="M8501 3079 c-7 -12 -10 -23 -8 -26 3 -3 11 5 17 17 15 28 8 35 -9 9z"/>
<path d="M8640 3075 c-7 -9 -10 -18 -7 -21 3 -3 10 4 17 15 13 25 8 27 -10 6z"/>
<path d="M2606 3042 c-10 -17 88 -151 101 -139 5 6 -40 80 -73 120 -12 15 -25
23 -28 19z"/>
<path d="M8381 2826 c-7 -8 -11 -20 -10 -28 1 -7 1 -24 0 -37 -1 -23 -2 -23
-27 -6 -14 9 -29 13 -32 9 -4 -4 -1 -9 6 -11 6 -3 10 -9 6 -14 -5 -8 18 -13
54 -12 6 1 12 -6 12 -14 0 -8 -4 -12 -9 -8 -10 5 -41 -31 -41 -48 0 -5 8 -6
19 -2 10 3 28 -2 40 -12 19 -16 21 -22 12 -46 -11 -29 -1 -36 19 -12 7 8 10
25 6 40 -9 36 -9 39 3 43 6 2 16 -8 22 -22 16 -33 39 -34 39 -1 0 16 6 25 15
25 16 0 20 16 6 24 -10 6 -8 86 2 103 9 15 -7 25 -27 17 -8 -3 -21 -2 -28 2
-7 5 -23 7 -35 5 -13 -1 -23 2 -23 8 0 15 -15 14 -29 -3z m39 -26 c0 -5 -2
-10 -4 -10 -3 0 -8 5 -11 10 -3 6 -1 10 4 10 6 0 11 -4 11 -10z"/>
<path d="M8837 2817 c-15 -12 -60 -34 -100 -49 -49 -18 -64 -27 -46 -27 26 -1
122 34 147 52 12 9 37 48 30 46 -2 0 -16 -10 -31 -22z"/>
<path d="M8343 2818 c3 -9 1 -19 -6 -22 -9 -3 -9 -5 0 -5 18 -1 27 19 13 32
-10 9 -12 8 -7 -5z"/>
<path d="M9070 2730 c8 -5 22 -9 30 -9 10 0 8 3 -5 9 -27 12 -43 12 -25 0z"/>
<path d="M8249 2677 c-30 -28 -65 -60 -79 -69 -21 -15 -19 -15 19 1 42 18 121
90 121 111 0 16 -4 13 -61 -43z"/>
<path d="M2849 2702 c12 -23 83 -93 89 -87 5 5 -81 105 -91 105 -4 0 -3 -8 2
-18z"/>
<path d="M8154 2668 l-1 -29 23 22 c30 28 30 37 2 36 -18 0 -23 -5 -24 -29z"/>
<path d="M6816 2571 c-7 -11 55 -129 107 -208 27 -39 84 -105 126 -146 63 -61
88 -78 132 -90 101 -29 108 -30 115 -14 3 8 25 20 49 26 35 9 43 15 47 38 3
16 8 35 12 44 6 13 -11 22 -96 49 -103 33 -231 90 -243 110 -3 5 -3 10 2 10
11 -1 141 -45 183 -63 19 -8 68 -23 108 -32 63 -16 79 -16 115 -5 23 8 49 22
58 33 13 16 22 18 45 12 l29 -8 -30 -7 c-29 -6 -29 -6 17 -18 72 -19 108 -16
108 8 0 11 -4 20 -9 20 -5 0 -34 20 -64 45 -30 24 -58 41 -62 37 -5 -4 -5 -1
-1 5 4 7 0 29 -10 48 -17 36 -34 46 -34 20 0 -11 -6 -12 -22 -6 -13 4 -28 6
-34 4 -6 -2 -42 10 -80 27 -61 28 -73 30 -104 21 -19 -6 -100 -15 -179 -21
-152 -10 -163 -8 -211 35 -26 23 -67 38 -74 26z"/>
<path d="M8196 2558 c-18 -25 -20 -38 -8 -38 10 0 35 50 28 57 -2 2 -11 -6
-20 -19z"/>
<path d="M3006 2529 c16 -17 43 -40 59 -51 21 -15 15 -5 -20 30 -27 29 -54 52
-59 52 -5 0 3 -14 20 -31z"/>
<path d="M8547 2513 c-4 -3 -7 -16 -7 -29 0 -21 2 -21 30 -11 17 7 26 13 20
15 -5 2 -10 10 -10 18 0 14 -21 19 -33 7z"/>
<path d="M7980 2417 l-24 -42 -7 30 -6 30 -8 -30 -9 -30 -7 30 -6 30 -16 -35
c-9 -19 -16 -31 -17 -26 0 5 -7 3 -15 -4 -12 -10 -16 -8 -25 14 -14 37 -18 32
-16 -15 2 -39 2 -40 -14 -19 -9 11 -19 18 -23 14 -4 -4 -2 -13 4 -20 8 -10 5
-11 -13 -7 -23 5 -23 5 2 -19 14 -13 37 -30 50 -39 14 -9 22 -20 18 -24 -4 -4
-17 0 -30 9 -12 9 -29 16 -38 15 -10 0 -11 -2 -2 -6 20 -8 14 -20 -18 -33 -29
-12 -41 -30 -20 -30 5 0 7 -7 4 -15 -6 -16 8 -20 58 -16 23 2 27 -1 21 -16 -6
-16 -5 -16 10 -4 16 12 17 12 11 -5 -10 -27 -64 -104 -72 -104 -8 0 -57 -127
-66 -172 -9 -41 -25 -34 -32 13 -7 41 -7 41 -23 21 -13 -17 -35 -24 -108 -33
-51 -7 -96 -10 -99 -6 -4 4 17 34 46 67 29 34 50 64 46 67 -3 3 -24 -6 -46
-21 -22 -15 -82 -45 -133 -67 -50 -22 -100 -48 -109 -56 -19 -17 -25 -39 -9
-28 6 3 15 -4 21 -15 9 -16 6 -25 -14 -47 -14 -15 -23 -29 -20 -32 7 -7 91 89
104 119 10 25 88 66 99 54 3 -4 1 -8 -4 -10 -18 -7 -121 -108 -167 -165 -25
-31 -57 -79 -71 -108 l-24 -52 29 -20 c31 -23 41 -20 43 10 1 24 34 73 43 67
4 -3 9 5 9 17 1 11 9 25 18 29 8 5 15 15 15 22 0 7 9 21 20 31 11 10 17 21 15
25 -3 4 2 11 11 14 10 4 13 13 9 25 -3 10 1 24 10 31 22 18 30 5 17 -26 -7
-14 -8 -23 -2 -19 15 9 12 -4 -5 -22 -8 -8 -13 -19 -10 -24 11 -17 21 -9 34
26 13 36 20 39 80 37 20 -1 51 9 76 24 l43 25 -10 -43 c-12 -54 -28 -79 -73
-114 -19 -14 -35 -31 -35 -36 0 -5 8 -2 18 8 16 17 17 17 20 -9 4 -33 22 -36
22 -4 0 13 6 31 13 42 13 16 14 14 20 -25 3 -23 1 -54 -4 -67 -13 -35 -8 -125
7 -112 8 6 27 -14 63 -68 54 -83 97 -131 205 -231 72 -66 152 -119 163 -108 4
4 -1 44 -12 89 -33 146 -30 352 5 402 4 6 15 39 23 74 9 35 18 66 21 68 3 3
12 -10 20 -28 8 -19 44 -65 79 -102 l64 -68 10 28 c25 68 43 144 52 222 10 76
9 87 -11 133 l-21 50 -14 -32 c-9 -23 -17 -30 -29 -26 -10 4 -22 -1 -30 -11
-12 -17 -15 -17 -58 6 -25 13 -46 27 -46 31 0 4 -7 10 -15 14 -12 4 -14 0 -9
-19 11 -42 -22 -30 -57 22 -36 51 -35 52 -58 -33 -19 -70 -97 -161 -109 -126
-2 7 -10 12 -17 12 -8 0 -15 9 -17 21 -3 18 -5 18 -21 6 -16 -11 -19 -26 -18
-98 1 -94 21 -222 40 -258 13 -24 7 -41 -8 -25 -5 5 -21 46 -36 91 -23 71 -26
97 -24 186 1 57 -1 108 -4 114 -16 26 71 243 122 303 l20 25 1 -35 2 -35 13
30 c13 28 14 28 15 6 0 -20 2 -21 15 -11 8 7 15 23 15 36 0 28 16 32 24 7 4
-10 15 -29 26 -43 l20 -25 -10 33 c-8 30 -8 32 7 20 15 -12 15 -11 5 9 -17 32
-15 36 18 31 20 -3 30 0 30 9 0 7 -8 13 -17 13 -20 1 -64 30 -45 30 7 0 11 5
10 11 -2 6 20 18 47 26 28 8 55 19 60 25 7 8 4 9 -10 3 -11 -4 -30 -10 -43
-12 -21 -5 -22 -4 -7 23 13 26 13 29 0 32 -8 2 -13 7 -10 12 3 5 1 11 -4 15
-6 3 -7 13 -4 21 5 14 3 14 -16 3 -11 -8 -21 -19 -21 -26 0 -7 -4 -13 -10 -13
-15 0 -12 16 5 30 8 7 12 16 9 21 -3 5 0 18 6 30 22 40 3 28 -20 -14z m-80
-79 c0 -19 -2 -20 -10 -8 -13 19 -13 30 0 30 6 0 10 -10 10 -22z"/>
<path d="M8462 2433 c-18 -32 -17 -79 0 -96 22 -22 30 -21 46 3 11 18 10 20
-10 20 -13 0 -18 4 -13 8 16 11 16 58 0 72 -11 9 -16 7 -23 -7z"/>
<path d="M3118 2423 c7 -12 40 -46 74 -75 34 -29 83 -72 108 -95 26 -24 52
-43 59 -43 6 0 11 -3 11 -8 0 -9 40 -35 46 -29 3 2 -44 45 -103 95 -59 51
-130 111 -157 134 -33 28 -45 35 -38 21z"/>
<path d="M8420 2425 c-9 -11 -17 -12 -30 -5 -11 6 -21 7 -23 3 -9 -16 -17 -63
-11 -63 4 0 68 27 80 34 1 1 5 11 8 24 8 25 -5 29 -24 7z"/>
<path d="M6800 2301 c0 -50 -18 -99 -40 -111 -13 -7 -23 -2 -46 27 -28 36 -29
36 -35 12 -3 -13 -2 -28 3 -33 15 -18 8 -27 -12 -16 -22 12 -27 1 -9 -17 9 -9
7 -11 -7 -7 -15 4 -20 0 -20 -15 0 -16 6 -20 33 -19 18 1 33 6 33 11 0 6 3 7
6 4 13 -13 -18 -37 -41 -31 -27 7 -36 -4 -28 -34 8 -31 24 -27 63 13 19 19 40
35 45 35 17 0 75 145 75 185 0 19 -4 35 -10 35 -5 0 -10 -17 -10 -39z"/>
<path d="M8675 2324 c-11 -9 -39 -25 -62 -35 l-41 -19 18 -38 c11 -20 22 -45
25 -56 4 -13 9 -15 18 -9 6 5 39 18 72 28 33 10 81 28 106 41 26 13 49 20 53
17 3 -4 6 -1 6 5 0 16 -12 21 -59 23 -26 2 -47 9 -54 19 -10 15 -49 41 -59 40
-2 0 -12 -8 -23 -16z"/>
<path d="M8421 2313 c-6 -10 -11 -12 -11 -5 0 6 -5 12 -11 12 -21 0 -3 -24 23
-31 19 -5 28 -3 32 8 13 32 -16 45 -33 16z"/>
<path d="M8160 2231 l-25 -7 25 -7 c38 -10 50 -8 50 8 0 16 -10 17 -50 6z"/>
<path d="M8367 2211 c-19 -17 -48 -31 -67 -33 l-35 -4 40 -19 c49 -23 218 -36
175 -13 -14 7 -34 32 -45 55 -11 23 -23 42 -27 43 -4 0 -22 -13 -41 -29z"/>
<path d="M8074 2212 c4 -7 2 -12 -6 -13 -7 0 4 -7 24 -14 33 -12 64 -32 149
-94 11 -7 19 -9 19 -4 0 5 -21 25 -47 45 -60 45 -149 96 -139 80z"/>
<path d="M6968 2124 c-16 -8 -28 -16 -28 -19 0 -7 63 14 74 25 15 15 -14 12
-46 -6z"/>
<path d="M7040 2116 c0 -8 20 -23 45 -35 25 -12 43 -26 40 -31 -8 -14 -2 -13
45 6 32 13 47 14 66 6 13 -7 24 -16 24 -22 0 -6 9 -21 21 -33 l20 -22 -28 -3
c-15 -2 -42 -10 -60 -18 -33 -15 -73 -19 -73 -6 0 4 -35 6 -79 4 -68 -3 -85 0
-129 22 -28 14 -54 31 -57 37 -4 6 5 24 21 40 37 38 18 37 -29 -2 -36 -30 -37
-32 -21 -50 9 -10 37 -26 63 -35 60 -22 68 -30 40 -39 -81 -25 -229 -124 -189
-126 8 0 -3 -9 -25 -19 l-40 -18 40 5 c22 4 46 14 53 24 19 27 98 36 133 15
27 -16 31 -16 83 9 30 14 66 39 80 56 14 16 29 29 34 29 5 0 22 6 37 14 26 14
55 12 55 -3 0 -4 -25 -23 -56 -44 -63 -41 -57 -52 7 -11 23 14 62 37 87 51 63
35 86 55 71 64 -17 10 -2 29 23 29 20 0 20 1 3 20 -10 11 -21 18 -24 15 -4 -2
-27 6 -51 17 -69 31 -181 68 -207 68 -13 0 -23 -6 -23 -14z"/>
<path d="M3520 2091 c35 -31 49 -40 217 -145 116 -72 357 -191 493 -243 186
-72 454 -150 390 -114 -8 5 -31 12 -50 16 -46 9 -288 95 -415 147 -144 59
-392 192 -510 274 -33 22 -82 53 -110 69 l-50 27 35 -31z"/>
<path d="M5806 2074 c27 -24 54 -44 59 -44 6 0 3 5 -5 10 -8 5 -10 10 -4 10 6
0 17 -7 25 -16 10 -13 10 -17 -1 -24 -10 -6 0 -26 46 -85 61 -80 131 -148 145
-140 4 3 14 -2 23 -10 26 -26 102 -55 183 -70 43 -8 101 -20 128 -25 28 -6 62
-8 78 -4 16 3 27 1 27 -5 0 -13 -169 -65 -298 -91 -94 -19 -107 -19 -159 -6
-31 8 -61 20 -67 26 -8 8 -4 10 17 5 32 -8 154 13 164 28 4 7 0 8 -11 4 -15
-6 -143 -9 -199 -5 -9 1 -16 7 -15 14 2 7 -30 44 -71 83 -58 55 -79 69 -96 65
-13 -3 -27 1 -34 10 -12 14 -10 16 10 16 19 1 14 6 -25 26 -38 20 -65 26 -122
28 -40 1 -76 4 -79 8 -4 4 -17 3 -29 -1 -11 -5 -27 -6 -33 -4 -28 10 -11 -14
22 -31 20 -11 73 -57 119 -104 73 -74 91 -87 150 -107 64 -22 65 -23 35 -29
-49 -9 -29 -17 53 -20 96 -4 238 -26 238 -37 0 -5 -12 -11 -27 -15 -54 -12
-63 -16 -58 -24 7 -11 -12 -24 -64 -44 -116 -45 -250 -174 -286 -275 -8 -23
-25 -57 -37 -74 -23 -32 -33 -71 -16 -61 4 3 6 10 3 15 -4 5 2 17 11 26 12 13
19 14 21 6 3 -9 15 -7 43 7 22 11 63 29 92 41 29 11 85 40 124 64 68 42 72 48
119 141 67 133 73 139 146 154 45 10 57 15 43 20 -10 4 -22 6 -26 3 -5 -2 -8
0 -8 4 0 5 28 17 63 26 34 10 123 36 197 59 173 52 170 51 170 41 0 -11 -64
-63 -130 -106 -100 -64 -174 -132 -218 -196 -23 -34 -40 -67 -36 -72 3 -5 0
-34 -5 -65 -12 -61 -1 -95 24 -74 6 5 15 7 18 3 4 -3 7 -1 7 5 0 7 5 12 11 12
5 0 3 -10 -5 -22 -27 -38 -18 -44 17 -12 17 17 51 44 73 60 45 32 107 101 128
143 8 14 26 64 40 111 15 46 31 89 35 95 5 5 11 22 14 36 4 15 26 41 51 60 39
30 66 73 53 86 -3 2 -22 -3 -42 -11 -44 -19 -59 -20 -49 -5 5 9 -1 10 -22 4
-16 -4 -50 -9 -75 -12 -83 -9 -148 41 -249 191 -25 36 -61 78 -81 92 -38 26
-124 54 -170 54 -28 0 -75 29 -49 30 36 2 -46 32 -107 39 l-67 8 50 -43z m316
-201 c35 -27 68 -55 75 -63 23 -28 13 -32 -19 -9 -83 58 -146 119 -123 119 3
0 33 -21 67 -47z m-471 -91 c76 -44 159 -104 159 -114 0 -12 -76 32 -135 76
-22 17 -52 39 -65 48 -40 27 -9 20 41 -10z m524 8 c10 -11 15 -20 11 -20 -14
0 -46 21 -46 30 0 16 16 11 35 -10z m-545 -40 c0 -5 -2 -10 -4 -10 -3 0 -8 5
-11 10 -3 6 -1 10 4 10 6 0 11 -4 11 -10z m845 -367 c-8 -32 -13 -39 -21 -30
-10 9 5 57 17 57 7 0 9 -10 4 -27z m-625 -73 c-64 -59 -80 -69 -80 -51 0 15
120 110 140 111 3 0 -24 -27 -60 -60z m490 45 c0 -8 -81 -124 -91 -131 -22
-13 -6 27 32 79 34 49 59 70 59 52z m14 -130 c-4 -8 -12 -15 -20 -15 -8 0 -11
6 -8 15 4 8 12 15 20 15 8 0 11 -6 8 -15z"/>
<path d="M7363 2053 c-7 -2 -13 -8 -13 -12 0 -11 49 -1 56 10 5 9 -22 11 -43
2z"/>
<path d="M8335 2027 c11 -7 39 -30 62 -52 57 -56 62 -89 28 -215 -44 -167 -37
-230 39 -340 20 -28 41 -70 47 -93 12 -47 20 -40 44 38 9 28 23 63 32 80 18
32 29 163 19 218 -4 20 -42 92 -86 162 -44 70 -80 130 -80 132 0 7 92 -68 148
-121 73 -69 84 -95 93 -207 14 -177 56 -274 153 -354 25 -20 46 -43 46 -51 0
-12 37 -44 51 -44 3 0 6 73 5 163 -1 150 -3 165 -25 207 -37 69 -101 140 -156
171 -42 24 -255 219 -239 219 20 0 125 -58 156 -85 51 -46 184 -89 253 -81 55
6 235 54 248 66 5 4 -29 27 -75 51 -45 23 -104 54 -131 67 -69 36 -160 40
-267 12 -123 -32 -156 -30 -246 14 -75 38 -162 69 -119 43z m593 -184 c-10 -2
-28 -2 -40 0 -13 2 -5 4 17 4 22 1 32 -1 23 -4z m-418 -218 c0 -30 -4 -55 -10
-55 -5 0 -10 25 -10 55 0 30 5 55 10 55 6 0 10 -25 10 -55z"/>
<path d="M7360 2005 c-10 -13 -9 -15 12 -15 13 0 33 7 44 15 18 14 17 14 -12
15 -17 0 -37 -7 -44 -15z"/>
<path d="M8166 1976 c11 -8 34 -18 50 -21 22 -5 18 -1 -15 14 -51 24 -64 27
-35 7z"/>
<path d="M7143 1834 c-70 -53 -113 -96 -106 -107 3 -5 31 15 62 45 31 30 69
65 85 76 16 12 24 22 18 22 -6 0 -32 -16 -59 -36z"/>
<path d="M7159 1776 c-15 -13 -36 -40 -48 -60 -12 -19 -35 -41 -51 -48 -17 -7
-30 -19 -30 -25 0 -16 -16 -17 -25 -3 -7 11 -49 9 -61 -3 -4 -4 7 -7 24 -7 40
0 40 -8 0 -44 -22 -19 -28 -31 -20 -33 7 -3 19 1 28 7 24 21 29 2 6 -23 -12
-13 -22 -28 -22 -35 0 -20 25 -3 45 30 19 33 34 24 16 -10 -13 -25 -4 -34 20
-19 21 13 25 37 8 54 -16 16 -4 44 16 37 9 -4 15 -1 15 7 0 24 -17 42 -30 34
-8 -5 -11 -4 -7 2 10 16 67 24 89 12 19 -10 20 -9 16 13 -4 20 1 27 26 38 23
11 27 15 14 18 -20 4 -23 33 -8 63 14 25 10 24 -21 -5z"/>
<path d="M6813 1783 c9 -2 23 -2 30 0 6 3 -1 5 -18 5 -16 0 -22 -2 -12 -5z"/>
<path d="M6288 1653 c7 -3 16 -2 19 1 4 3 -2 6 -13 5 -11 0 -14 -3 -6 -6z"/>
<path d="M6650 1610 c-13 -9 -13 -10 0 -10 8 0 22 5 30 10 13 9 13 10 0 10 -8
0 -22 -5 -30 -10z"/>
<path d="M7540 1584 c0 -14 4 -23 9 -19 11 6 10 45 -1 45 -4 0 -8 -12 -8 -26z"/>
<path d="M6458 1593 c7 -3 16 -2 19 1 4 3 -2 6 -13 5 -11 0 -14 -3 -6 -6z"/>
<path d="M4685 1560 c11 -5 31 -8 45 -8 l25 0 -25 8 c-14 4 -34 8 -45 8 l-20
1 20 -9z"/>
<path d="M7447 1542 c-19 -21 -22 -32 -7 -32 10 0 34 39 27 46 -2 2 -11 -4
-20 -14z"/>
<path d="M4789 1538 c27 -7 31 -12 20 -19 -10 -7 -6 -9 16 -8 17 1 59 -3 95
-10 81 -14 140 -14 140 -1 0 6 -15 10 -33 10 -19 0 -76 9 -128 20 -101 21
-174 27 -110 8z"/>
<path d="M5160 1535 c14 -8 32 -14 40 -15 8 0 2 7 -14 15 -36 19 -59 19 -26 0z"/>
<path d="M4693 1533 c9 -2 23 -2 30 0 6 3 -1 5 -18 5 -16 0 -22 -2 -12 -5z"/>
<path d="M4748 1523 c6 -2 18 -2 25 0 6 3 1 5 -13 5 -14 0 -19 -2 -12 -5z"/>
<path d="M5238 1508 c5 -5 16 -8 23 -6 8 3 3 7 -10 11 -17 4 -21 3 -13 -5z"/>
<path d="M5325 1510 c-3 -5 -16 -10 -28 -10 -20 -1 -20 -2 -4 -11 9 -6 15 -14
13 -18 -3 -4 4 -8 15 -8 21 -2 26 13 7 20 -10 3 -10 7 1 20 7 10 11 17 8 17
-3 0 -9 -4 -12 -10z"/>
<path d="M7103 1513 c-21 -8 -15 -22 7 -16 11 3 20 9 20 14 0 10 -8 10 -27 2z"/>
<path d="M5380 1490 c0 -5 5 -10 10 -10 6 0 10 5 10 10 0 6 -4 10 -10 10 -5 0
-10 -4 -10 -10z"/>
<path d="M6662 1464 c-44 -19 -179 -155 -229 -229 -56 -84 -128 -229 -148
-297 -17 -60 -17 -149 0 -155 12 -4 80 136 76 156 -1 7 2 10 7 7 5 -3 7 6 4
21 -4 22 -2 25 14 19 10 -4 15 -4 11 0 -3 4 2 19 13 34 11 16 20 35 20 44 0 9
5 16 10 16 6 0 10 9 10 20 0 11 5 20 10 20 6 0 10 6 10 13 0 8 17 22 38 33 43
22 54 34 47 52 -2 6 0 12 5 12 5 0 12 9 15 20 3 11 13 20 21 20 8 0 14 4 14 9
0 5 13 14 29 21 16 6 39 22 52 36 12 13 28 24 35 24 6 0 14 7 18 15 3 8 1 15
-5 15 -6 0 -7 5 -4 11 4 6 9 8 12 5 8 -7 53 46 53 62 0 17 -96 14 -138 -4z"/>
<path d="M7376 1464 c-23 -23 -20 -30 4 -9 11 10 20 20 20 22 0 7 -9 2 -24
-13z"/>
<path d="M7096 1354 c-17 -54 -48 -125 -72 -164 -24 -37 -40 -71 -37 -74 14
-13 43 -5 55 17 13 23 15 32 23 85 6 46 14 55 41 48 22 -6 23 -5 12 13 -9 15
-8 32 7 86 28 105 4 96 -29 -11z"/>
<path d="M7571 1434 c0 -11 3 -14 6 -6 3 7 2 16 -1 19 -3 4 -6 -2 -5 -13z"/>
<path d="M7496 1393 c-6 -14 -5 -15 5 -6 7 7 10 15 7 18 -3 3 -9 -2 -12 -12z"/>
<path d="M7561 1324 c0 -50 -8 -113 -16 -140 -17 -55 -19 -94 -6 -94 13 0 21
26 21 67 0 43 23 41 28 -3 4 -27 16 -43 35 -44 4 0 7 5 7 12 0 6 7 19 16 29
15 16 14 19 -6 36 -34 29 -62 93 -70 163 l-7 65 -2 -91z"/>
<path d="M7428 1288 c-24 -35 -46 -70 -50 -78 -5 -11 -7 -11 -7 -2 -1 10 -6 9
-18 -4 -12 -12 -14 -19 -6 -21 7 -3 -12 -36 -46 -81 -74 -100 -82 -115 -38
-73 46 44 50 23 10 -51 -25 -46 -26 -51 -10 -59 13 -8 15 -14 7 -29 -7 -13 -5
-24 9 -41 l18 -23 12 21 c6 12 7 24 3 27 -4 3 -6 21 -4 42 3 21 8 31 12 24 5
-9 9 -8 13 2 7 20 -3 68 -15 68 -21 0 39 159 63 168 5 2 9 9 9 16 0 8 8 24 18
37 26 34 75 119 68 119 -3 0 -25 -28 -48 -62z"/>
<path d="M7128 1153 c-32 -13 -36 -18 -28 -34 13 -24 67 -52 75 -39 3 5 11 7
18 4 7 -2 21 3 32 12 17 13 17 15 3 10 -13 -4 -18 0 -18 13 0 10 -7 22 -16 25
-8 3 -12 10 -9 16 9 14 -14 12 -57 -7z"/>
<path d="M6480 1100 c0 -24 15 -27 24 -4 9 22 8 24 -9 24 -8 0 -15 -9 -15 -20z"/>
<path d="M7596 1014 c-18 -18 -18 -45 0 -51 16 -5 46 26 42 45 -4 22 -23 25
-42 6z"/>
<path d="M7079 907 c-18 -14 -15 -76 5 -89 8 -6 6 -11 -4 -18 -13 -9 -13 -10
1 -10 28 0 89 80 89 119 0 12 -74 10 -91 -2z"/>
<path d="M7009 816 c-16 -30 -15 -32 7 -49 25 -19 38 -22 29 -8 -3 5 -1 12 5
16 7 4 7 12 0 24 -5 10 -7 21 -4 23 2 3 -1 10 -8 16 -10 7 -17 2 -29 -22z"/>
</g>
</svg>
